<svg width="274" height="274" viewBox="0 0 274 274" fill="none" xmlns="http://www.w3.org/2000/svg">
<path fill-rule="evenodd" clip-rule="evenodd" d="M137.098 51.3755C201.611 62.212 246.6 99.0316 246.6 157.818C246.6 228.281 190.709 155.068 152.17 196.15C113.631 237.232 31.523 238.397 27.5953 157.818C23.9186 82.3871 72.5845 40.5389 137.098 51.3755Z" fill="#5B60FD"/>
<path fill-rule="evenodd" clip-rule="evenodd" d="M104.121 165.287L121.186 143.213L121.578 143.523C124.098 145.504 126.097 146.81 127.574 147.44L128.011 147.625C135.106 150.61 139.985 151.623 139.201 152.324L138.23 153.197C131.959 158.858 123.373 167.089 112.471 177.892C110.978 179.501 108.966 180.533 106.793 180.808L104.544 181.077C82.477 183.689 68.3195 183.914 63.1316 182.766C62.0481 182.526 58.7132 183.152 56.1954 185.681C52.4186 189.475 47.0176 198.612 46.1106 198.612C44.792 198.612 46.0345 192.56 49.8381 180.455L50.2401 179.049C52.0122 172.905 53.287 169.273 54.0645 168.152C54.8996 166.947 57.7207 169.074 62.5276 174.53L62.3972 175.239C63.0211 174.516 63.7607 173.746 64.616 172.93L66.8871 172.658C74.9106 171.684 81.0094 170.793 85.1835 169.985L85.623 169.899C90.1454 169.003 96.3113 167.466 104.121 165.287Z" fill="white"/>
<path fill-rule="evenodd" clip-rule="evenodd" d="M210.391 142.418L216.737 147.199C217.954 148.115 218.847 149.4 219.283 150.861L220.485 154.887C221.05 156.105 220.556 157.551 219.363 158.167L217.122 159.83C215.681 160.574 213.924 159.768 213.545 158.19L212.284 153.704C212.284 153.704 206.937 152.079 206.225 145.716L210.391 142.418" fill="white"/>
<path fill-rule="evenodd" clip-rule="evenodd" d="M179.808 63.8903C184.144 64.0667 186.322 70.0081 187.74 72.945C188.223 73.9455 184.827 103.514 183.717 111.08C181.741 124.555 175.768 128.827 172.019 129.745C172.019 129.745 172.244 145.064 170.673 148.877C167.196 157.32 123.179 151.653 118.878 137.542C115.937 127.896 126.865 126.771 130.967 120.955C138.484 110.296 138.874 100.376 146.971 93.2788C150.04 89.916 153.603 86.5407 156.676 82.482L157.926 80.8371C165.742 70.5981 171.693 63.8047 179.401 63.88L179.808 63.8903Z" fill="white"/>
<path fill-rule="evenodd" clip-rule="evenodd" d="M158.068 89.5202C157.35 89.8664 156.3 89.9739 155.925 89.2705C154.749 87.062 151.152 86.7584 149.623 88.7385C151.091 88.2342 152.8 87.7528 154.112 88.5813C154.478 88.8118 154.793 89.135 155.105 89.4548C155.625 89.9875 156.136 90.5108 156.852 90.581C157.384 90.6332 157.891 90.4091 158.396 90.1861C158.937 89.9468 159.475 89.7087 160.04 89.8148C160.666 89.9326 161.105 90.4309 161.545 90.9294C161.983 91.4263 162.421 91.9234 163.045 92.0439C163.556 92.1425 164.069 91.9593 164.577 91.7778C165.145 91.5749 165.708 91.374 166.255 91.5711C166.908 91.8064 167.206 92.4792 167.505 93.1526C167.802 93.8224 168.099 94.4929 168.746 94.734C169.129 94.8769 169.543 94.8252 169.952 94.7455L170.357 94.6627C171.312 94.4727 172.343 94.4556 173.217 94.8855C173.968 95.2549 174.559 96.0196 174.608 96.8357C174.627 96.6596 174.645 96.4838 174.66 96.3085L174.811 95.3147C173.945 94.2982 172.583 93.7228 171.25 93.8113C171.021 93.8265 170.793 93.8599 170.565 93.8933C170.126 93.9575 169.687 94.0215 169.251 93.9552C168.589 93.8544 167.916 93.2908 168.028 92.6307L168.038 92.5595C168.159 91.4538 166.677 90.8197 165.539 90.9128C165.297 90.9326 165.049 90.9648 164.8 90.9971C163.85 91.1204 162.879 91.2466 162.133 90.7008C161.845 90.4899 161.623 90.1947 161.402 89.9022C161.094 89.4931 160.789 89.0895 160.316 88.9304C159.793 88.7546 159.261 88.939 158.745 89.1839L158.573 89.2674L158.068 89.5202ZM149.809 97.209C150.304 97.8723 151.321 97.5008 152.106 97.214L152.147 97.199C154.253 96.4307 156.791 97.0303 158.33 98.6598C159.174 99.5533 160.423 99.3036 161.716 99.0451C162.796 98.8291 163.907 98.6069 164.838 99.0401C165.273 99.2427 165.677 99.5853 166.074 99.921C166.799 100.536 167.498 101.128 168.311 100.793C169.854 100.157 171.747 100.496 172.986 101.609L172.981 101.959L172.976 102.732C171.745 101.499 169.751 101.1 168.14 101.763C167.326 102.099 166.628 101.507 165.902 100.891C165.506 100.556 165.102 100.213 164.667 100.011C163.736 99.5774 162.625 99.7995 161.545 100.015C160.252 100.274 159.003 100.524 158.159 99.6303C156.651 98.0333 154.183 97.4255 152.103 98.125L151.688 98.2738C150.947 98.5364 150.082 98.7749 149.638 98.1795C148.239 96.301 145.428 95.6426 143.34 96.7037L143.61 95.6846L143.733 95.6279C145.795 94.7199 148.459 95.3965 149.809 97.209ZM145.014 105.585C144.24 105.902 143.237 106.312 142.718 105.669C141.772 104.496 139.611 104.41 136.234 105.412C136.492 105.587 137.158 105.57 137.979 105.549C139.526 105.508 141.624 105.454 142.584 106.645C143.051 107.223 143.906 106.951 144.636 106.661L145.045 106.496C147.097 105.717 149.586 106.23 151.155 107.768C152.033 108.628 153.271 108.331 154.553 108.023C155.624 107.765 156.725 107.501 157.672 107.898C158.115 108.084 158.532 108.41 158.941 108.731C159.689 109.317 160.41 109.882 161.21 109.516L161.321 109.467C162.228 109.085 163.969 109.729 165.548 110.314C166.696 110.739 167.758 111.132 168.35 111.075C164.691 108.922 162.355 108.077 161.344 108.54L161.263 108.574C160.495 108.868 159.798 108.321 159.074 107.754C158.666 107.434 158.249 107.107 157.806 106.922C156.859 106.524 155.757 106.789 154.686 107.046C153.405 107.354 152.166 107.652 151.289 106.791C149.688 105.222 147.129 104.72 145.054 105.569L145.014 105.585ZM152.187 141.126C153.115 141.722 154.318 142.493 155.176 142.07C156.693 141.322 159.426 141.986 163.376 144.061L163.756 144.263C163.369 144.334 162.5 144.067 161.428 143.737C159.409 143.117 156.672 142.275 155.083 143.059C154.312 143.439 153.264 142.856 152.386 142.302L151.895 141.989C149.577 140.567 146.446 140.087 144.019 140.758C143.241 141.082 142.158 140.703 140.967 140.286C140.157 140.003 139.298 139.702 138.451 139.593C137.408 139.459 136.87 139.54 136.398 139.61C135.925 139.681 135.518 139.742 134.732 139.566C134.124 139.43 133.153 139.006 131.819 138.292C129.453 137.157 125.262 137.294 123.056 138.084L122.936 138.125C120.578 138.904 120.598 138.05 122.969 137.161L123.149 137.095L123.291 137.046C125.811 136.207 130.479 136.298 132.922 137.865L132.97 137.896C133.899 138.492 135.101 139.264 135.96 138.84L136.023 138.812C136.624 138.565 138.029 138.569 138.465 138.598L138.545 138.604C140.012 138.767 140.331 138.9 140.679 139.154L140.929 139.343L141.071 139.398C141.601 139.605 142.164 139.849 142.758 140.131C143.004 140.109 143.287 140.044 143.621 139.924L143.763 139.875C146.283 139.036 149.696 139.528 152.139 141.095L152.187 141.126ZM141.267 112.975C141.816 113.619 142.877 113.208 143.696 112.892L143.738 112.875C145.934 112.027 148.641 112.528 150.334 114.098C151.263 114.958 152.572 114.661 153.929 114.353C155.062 114.095 156.227 113.831 157.229 114.228C157.697 114.413 158.139 114.74 158.571 115.061C159.336 115.628 160.074 116.174 160.887 115.88L160.972 115.846C162.042 115.383 164.512 116.228 168.383 118.381C167.758 118.438 166.634 118.045 165.419 117.62C163.749 117.036 161.907 116.391 160.948 116.773L160.83 116.822C159.984 117.188 159.221 116.624 158.429 116.037C157.997 115.717 157.556 115.39 157.087 115.204C156.085 114.807 154.92 115.072 153.787 115.329C152.431 115.637 151.121 115.934 150.193 115.074C148.533 113.536 145.9 113.023 143.729 113.802L143.296 113.967C142.524 114.258 141.619 114.529 141.126 113.951C140.109 112.76 137.89 112.815 136.254 112.855C135.385 112.876 134.68 112.894 134.407 112.718C137.98 111.716 140.266 111.802 141.267 112.975ZM140.71 120.928C139.768 121.245 138.548 121.656 137.916 121.012C136.764 119.839 134.134 119.753 130.023 120.755C130.338 120.93 131.148 120.913 132.148 120.892C134.03 120.852 136.584 120.797 137.753 121.988C138.32 122.566 139.362 122.294 140.25 122.004L140.748 121.839C143.246 121.06 146.276 121.573 148.185 123.111C149.253 123.971 150.76 123.674 152.32 123.366C153.624 123.108 154.965 122.844 156.118 123.241C156.657 123.427 157.164 123.753 157.662 124.074C158.573 124.661 159.45 125.225 160.424 124.859L160.559 124.81C161.663 124.428 163.782 125.073 165.704 125.657C167.101 126.082 168.394 126.475 169.114 126.418C164.66 124.265 161.818 123.42 160.587 123.883L160.489 123.917C159.554 124.211 158.705 123.665 157.824 123.097C157.327 122.777 156.819 122.45 156.28 122.265C155.127 121.867 153.787 122.132 152.483 122.389C150.923 122.697 149.416 122.995 148.348 122.134C146.399 120.565 143.285 120.063 140.759 120.912L140.71 120.928ZM133.395 127.222C134.104 127.866 135.472 127.456 136.528 127.139L136.583 127.122C139.416 126.274 142.909 126.775 145.094 128.345C146.292 129.205 147.982 128.908 149.732 128.6C151.194 128.342 152.698 128.078 153.99 128.475C154.595 128.661 155.164 128.987 155.722 129.308C156.71 129.875 157.662 130.421 158.71 130.127L158.82 130.093C160.2 129.63 163.388 130.475 168.383 132.628C167.576 132.686 166.126 132.292 164.558 131.867C162.404 131.283 160.027 130.638 158.789 131.021L158.637 131.069C157.545 131.436 156.562 130.871 155.539 130.284C154.982 129.964 154.412 129.637 153.808 129.451C152.515 129.054 151.011 129.319 149.549 129.576C147.8 129.884 146.109 130.181 144.911 129.321C142.77 127.783 139.373 127.27 136.571 128.049L136.013 128.214C135.016 128.505 133.848 128.776 133.212 128.198C131.901 127.007 129.037 127.062 126.926 127.102H126.926C125.805 127.123 124.896 127.141 124.543 126.965C129.153 125.964 132.103 126.049 133.395 127.222ZM133.24 132.618C132.184 132.935 130.816 133.346 130.107 132.702C128.815 131.529 125.865 131.443 121.255 132.445C121.608 132.62 122.517 132.603 123.638 132.582C125.749 132.541 128.613 132.487 129.924 133.678C130.56 134.256 131.728 133.984 132.725 133.694L133.283 133.529C135.904 132.8 139.046 133.202 141.194 134.516C141.852 135.042 142.998 134.976 144.257 134.903C145.114 134.854 146.023 134.802 146.867 134.931C147.907 135.09 148.401 135.315 148.835 135.513C149.271 135.712 149.646 135.882 150.45 135.93C151.382 135.986 153.601 135.508 153.601 135.508C156.188 135.069 160.179 136.356 162.082 137.723L162.185 137.795C164.288 139.229 164.463 138.326 162.265 136.747L162.142 136.661C159.95 135.159 155.438 133.961 152.658 134.794L152.603 134.81C151.547 135.127 150.178 135.537 149.469 134.894C148.975 134.445 147.36 134.008 147.049 133.955C145.404 133.674 145.18 133.762 144.681 133.958L144.634 133.977C144.608 133.987 144.582 133.997 144.554 134.008L144.402 134.021C143.835 134.074 143.228 134.153 142.578 134.26C142.348 134.171 142.094 134.031 141.806 133.824L141.683 133.738C139.492 132.237 136.075 131.769 133.295 132.602L133.24 132.618Z" fill="#FFB61D"/>
<path fill-rule="evenodd" clip-rule="evenodd" d="M178.409 68.3383C184.573 68.3595 189.437 73.5883 189.022 79.7438C189.022 79.7438 181.834 111.01 185.477 122.124C186.887 126.423 207.235 139.802 206.374 141.177L203.503 148.056C202.483 149.685 171.251 128.794 171.251 128.794C168.255 126.416 167.698 79.129 167.698 79.129C167.639 73.1736 172.458 68.3174 178.409 68.3383Z" fill="white"/>
<path d="M210.76 142.418L207.09 149.975L207.017 150.177C206.711 150.96 205.544 151.439 205.394 151.478L205.372 151.478L203.204 150.195C202.956 149.987 202.82 148.816 203.083 147.728L203.144 147.5C203.144 147.5 204.863 141.464 206.286 139.94C207.116 139.051 211.91 139.94 210.76 142.418Z" fill="white"/>
<path fill-rule="evenodd" clip-rule="evenodd" d="M158.474 212.111H149.711C149.711 212.111 159.995 185.414 159.995 178.408C159.995 176.235 151.911 179.509 153.084 176.235C154.697 171.733 160.276 163.683 158.902 159.642C157.465 155.416 152.104 153.885 147.435 152.172C146.541 151.844 162.86 152.977 167.336 149.417C173.24 144.72 168.446 134.349 170.032 138.006C171.945 142.418 184.376 153.487 181.912 165.473C179.512 177.15 158.474 212.111 158.474 212.111Z" fill="white"/>
<path fill-rule="evenodd" clip-rule="evenodd" d="M155.436 217.259L154.642 216.995C154.559 216.968 154.548 216.854 154.625 216.812L155.388 216.398V215.433C155.388 215.347 155.489 215.301 155.554 215.358L156.185 215.913L157.221 215.367C157.309 215.321 157.403 215.417 157.355 215.504L156.764 216.582L157.915 217.784C157.985 217.858 157.913 217.977 157.815 217.949L156.232 217.492L155.623 218.565C155.572 218.654 155.436 218.618 155.436 218.515V218.077V217.259Z" fill="#FFB61D"/>
<path fill-rule="evenodd" clip-rule="evenodd" d="M133.223 158.339C132.842 158.735 132.466 159.135 132.089 159.535L132.089 159.535L132.089 159.535L132.089 159.535L132.089 159.535L132.089 159.535L132.089 159.535L132.089 159.535C131.377 160.292 130.665 161.048 129.923 161.774C128.533 163.132 127.131 164.483 125.656 165.746C123.828 167.314 121.954 168.833 120.037 170.291C117.868 171.941 115.647 173.524 113.417 175.09C113.3 175.172 113.184 175.254 113.068 175.337L113.066 175.338L113.062 175.341C111.924 176.148 110.787 176.954 109.325 177.203C108.908 177.274 108.517 177.484 108.124 177.695C107.811 177.862 107.497 178.031 107.166 178.131C104.886 178.822 102.594 179.481 100.288 180.078C98.8719 180.444 97.4263 180.706 95.984 180.957C95.0863 181.114 89.9447 181.931 86.5242 182.427C83.1037 182.923 71.7913 182.923 68.967 182.865C67.3822 182.832 65.7977 182.777 64.2136 182.716L64.1318 182.713C63.8089 182.702 63.4659 182.69 63.1855 182.562C61.6297 181.858 60.4259 182.625 59.206 183.403L59.1182 183.459C57.5166 184.479 56.5364 186.014 55.5678 187.586C55.0532 188.421 54.508 189.237 53.9629 190.053L53.9627 190.054L53.9626 190.054C53.3759 190.932 52.7893 191.81 52.2408 192.712C51.5148 193.906 50.8672 195.149 50.2203 196.39C50.104 196.613 49.9877 196.836 49.8709 197.059C49.0157 198.692 47.7328 199.641 45.8922 199.993C44.9773 200.167 44.1936 199.896 43.4118 199.625C43.1221 199.524 42.8326 199.424 42.5369 199.347C41.958 199.195 41.4913 197.631 41.6977 197.012C42.3005 195.205 42.9044 193.398 43.5083 191.592L43.5084 191.591C44.7703 187.816 46.0322 184.042 47.2831 180.263C48.1568 177.624 49.0098 174.978 49.8629 172.332L49.8642 172.328C50.1046 171.582 50.345 170.837 50.5858 170.091C50.7008 169.736 50.8099 169.378 50.9191 169.02L50.9192 169.02C51.1002 168.427 51.2811 167.834 51.4882 167.25C51.5561 167.059 51.837 166.823 52.0279 166.816C53.408 166.761 54.733 167.099 55.9919 167.615C58.3719 168.592 60.2034 170.239 61.5477 172.432C61.9042 173.013 62.5264 173.222 63.3111 173.084C63.6896 173.017 64.0717 172.967 64.4535 172.916C65.0368 172.839 65.6197 172.762 66.1892 172.627C67.4558 172.327 68.738 172.316 70.0198 172.306C70.845 172.3 71.6701 172.293 72.4908 172.209C73.055 172.151 73.6221 172.118 74.189 172.085C74.946 172.041 75.7027 171.997 76.4517 171.894C77.8131 171.707 79.1679 171.471 80.5226 171.235L80.5232 171.235L80.5238 171.235L80.5244 171.235L80.525 171.234L80.5256 171.234L80.5262 171.234L80.5268 171.234C81.1696 171.122 81.8125 171.01 82.4561 170.903C82.9762 170.817 83.4973 170.735 84.0184 170.654L84.0188 170.654L84.0192 170.654L84.0195 170.654L84.0199 170.654L84.0203 170.654L84.0207 170.654L84.0212 170.654L84.0219 170.653C85.0277 170.496 86.0333 170.339 87.0325 170.147C88.3106 169.902 89.5787 169.602 90.8461 169.303L91.3053 169.195C92.6456 168.88 93.9835 168.554 95.3214 168.229C95.8837 168.092 96.4459 167.955 97.0084 167.819C97.0674 167.804 97.1263 167.789 97.1851 167.774L97.188 167.773L97.2724 167.752C97.2558 167.743 97.239 167.734 97.2223 167.725L97.1805 167.704C97.1141 167.67 97.0477 167.635 96.9843 167.596C96.7895 167.476 96.589 167.362 96.3884 167.249C95.9306 166.989 95.4726 166.73 95.0828 166.392C94.2065 165.632 94.5061 164.369 95.6199 164.032C96.469 163.776 97.344 163.519 98.2208 163.46C99.4018 163.381 100.478 162.988 101.555 162.596C101.988 162.438 102.421 162.28 102.861 162.142C103.899 161.818 104.522 161.207 105.044 160.272C105.295 159.821 105.663 159.439 106.032 159.056C106.292 158.786 106.553 158.515 106.775 158.219C107.923 156.684 109.039 155.125 110.126 153.546C110.357 153.21 110.543 152.844 110.729 152.477L110.729 152.476L110.729 152.476L110.729 152.476L110.729 152.476C110.871 152.195 111.013 151.915 111.175 151.648C111.556 151.021 111.945 150.386 112.416 149.828L112.478 149.754C113.558 148.473 114.642 147.188 115.817 145.997C116.458 145.347 117.165 144.763 117.872 144.179L117.872 144.179C118.206 143.904 118.54 143.628 118.868 143.345C119.033 143.202 119.192 143.047 119.33 142.879C119.569 142.591 119.667 142.351 119.307 142.01C119.213 141.921 119.119 141.832 119.025 141.744C118.085 140.86 117.137 139.969 116.624 138.747L116.563 138.603L116.521 138.502L116.461 138.363L116.461 138.363C116.049 137.39 115.633 136.408 115.399 135.389C115.083 134.018 115.21 132.622 115.619 131.241C116.191 129.307 117.389 127.842 119.011 126.791C120.011 126.142 121.064 125.575 122.117 125.007L122.117 125.007C122.898 124.587 123.678 124.166 124.438 123.712C125.025 123.362 125.528 122.851 126.018 122.353L126.158 122.211C128.364 119.978 129.902 117.277 131.433 114.587C131.596 114.301 131.759 114.015 131.922 113.73C133.403 111.146 134.731 108.473 136.056 105.804C136.437 105.035 136.764 104.24 137.091 103.444L137.091 103.444C137.38 102.74 137.669 102.037 137.996 101.351C138.254 100.81 138.572 100.298 138.891 99.7849L138.891 99.7848C139.125 99.4081 139.359 99.0312 139.57 98.6423C139.796 98.2247 140.003 97.7954 140.209 97.3664L140.209 97.3662L140.209 97.3661C140.522 96.7162 140.834 96.0669 141.215 95.4593C141.486 95.0252 141.88 94.6672 142.273 94.3097C142.438 94.1601 142.603 94.0105 142.758 93.8555C142.952 93.6625 143.149 93.4729 143.346 93.2833L143.346 93.2827L143.347 93.2821C143.552 93.0843 143.758 92.8864 143.96 92.6848C144.315 92.329 144.667 91.9683 145.008 91.5983C145.663 90.887 146.322 90.1789 146.981 89.4707L146.981 89.4706C148.606 87.7242 150.231 85.9777 151.802 84.1841C153.643 82.0826 155.395 79.8992 157.115 77.6965C157.799 76.8207 158.416 75.8921 159.032 74.9635C159.307 74.5499 159.581 74.1364 159.862 73.7275C159.877 73.7044 159.891 73.6791 159.904 73.6538C159.922 73.6178 159.941 73.5819 159.967 73.5529C160.412 73.0623 160.853 72.567 161.294 72.0718C162.329 70.909 163.364 69.7462 164.459 68.6432C166.084 67.0065 167.945 65.6494 169.965 64.5191C170.273 64.3468 170.57 64.1511 170.866 63.9557C171.334 63.6478 171.8 63.3405 172.307 63.1262C172.388 63.0918 172.47 63.0569 172.552 63.0218L172.669 62.9716C173.637 62.5556 174.652 62.1195 175.652 62.099C177.761 62.0558 179.954 62.0796 181.724 63.5705C182.06 63.853 182.149 63.7864 182.181 63.4086C182.211 63.0478 182.272 62.6763 182.334 62.3046C182.476 61.4388 182.619 60.5722 182.37 59.8395C182.22 59.3965 182.167 58.9494 182.115 58.5062C182.056 58.0048 181.998 57.5084 181.8 57.0285C181.135 55.4242 180.543 53.7898 179.951 52.1562L179.95 52.1561L179.95 52.1559L179.825 51.809L179.683 51.4182C179.497 50.9083 179.346 50.3727 179.278 49.8363C179.228 49.453 179.212 49.0654 179.195 48.6779V48.6774C179.178 48.2797 179.162 47.8821 179.109 47.4892C178.923 46.0909 179.408 44.8623 179.895 43.6288C179.984 43.4036 180.073 43.1782 180.157 42.9516C181.192 40.1917 183.129 38.1044 185.221 36.1443C187.023 34.4567 190.006 33.9257 192.42 33.5095C193.311 33.3558 199.567 33.2088 202.871 33.1311C203.949 33.1058 204.713 33.0878 204.873 33.0795C205.525 33.0454 205.966 32.7423 206.407 32.4169C207.318 31.7452 207.552 30.7035 207.782 29.6784C207.805 29.5774 207.827 29.4764 207.851 29.3761C207.856 29.3517 207.862 29.3278 207.867 29.3046C207.926 29.0358 207.968 28.8473 208.372 28.8609C209.721 28.9062 210.415 29.7872 211.076 30.7939C211.82 31.9275 212.422 33.1095 212.629 34.4607C212.881 36.106 212.746 37.6342 211.576 38.9891C210.624 40.091 209.516 40.9332 208.265 41.6399C208.099 41.7337 207.994 42.2305 208.086 42.4427C209.029 44.6175 209.099 46.9102 209.007 49.2119C208.985 49.7706 208.894 50.3264 208.804 50.8823C208.718 51.4089 208.632 51.9357 208.604 52.4653C208.524 53.9841 208.835 55.4449 209.444 56.8574C209.857 57.8156 209.567 58.7231 208.874 59.4762C208.755 59.6052 208.607 59.7132 208.461 59.8203C208.254 59.9709 208.05 60.1198 207.934 60.3227C207.67 60.7818 207.487 61.3342 207.444 61.8607C207.412 62.2637 207.455 62.6719 207.498 63.0811C207.525 63.3353 207.552 63.5899 207.561 63.8438C207.595 64.8212 207.223 65.6572 206.722 66.4916C205.814 68.0014 204.617 69.1123 202.879 69.476C201.39 69.7876 199.843 69.8061 198.405 69.316C196.773 68.7596 195.181 68.0475 193.645 67.2597C193.209 67.036 192.863 66.6341 192.518 66.2324C192.364 66.0527 192.209 65.8731 192.047 65.7095C191.806 65.4672 191.685 65.3969 191.365 65.7355C190.223 66.9448 189.393 68.3186 188.722 69.8354C188.352 70.6725 188.592 71.3606 188.848 72.0935L188.878 72.1797L188.951 72.3888C189.305 73.4035 189.658 74.4133 189.631 75.5236C189.617 76.0723 189.628 76.6226 189.638 77.1727V77.1734V77.174V77.1747V77.1754V77.1761V77.1767V77.1774V77.1778C189.655 78.0492 189.672 78.92 189.593 79.7826C189.508 80.7052 189.301 81.6169 189.094 82.5281L189.094 82.5283L189.094 82.5288C189.011 82.8956 188.927 83.2624 188.852 83.6299C188.772 84.0198 188.694 84.4102 188.615 84.8005L188.615 84.8012L188.615 84.8018L188.615 84.8024L188.615 84.803L188.615 84.8036L188.615 84.8043L188.615 84.8048C188.378 85.9846 188.141 87.1645 187.858 88.3332C187.727 88.8748 187.547 89.4042 187.367 89.9338C187.22 90.3671 187.072 90.8006 186.952 91.241C186.812 91.7515 186.67 92.2617 186.528 92.7719C185.978 94.7553 185.426 96.7396 184.98 98.7468C184.599 100.466 184.378 102.234 184.25 103.992C184.17 105.091 184.182 106.197 184.194 107.303C184.201 107.915 184.207 108.526 184.199 109.137C184.192 109.599 184.168 110.06 184.144 110.521L184.144 110.522C184.113 111.109 184.083 111.696 184.088 112.282C184.09 112.516 184.091 112.75 184.093 112.984V112.984V112.984V112.985V112.985V112.985V112.985V112.985C184.103 114.534 184.114 116.086 184.25 117.625C184.385 119.161 184.677 120.691 185.014 122.198C185.29 123.436 186.139 124.392 186.981 125.29C187.419 125.756 187.905 126.178 188.391 126.599L188.391 126.599L188.391 126.599L188.392 126.6L188.392 126.6L188.392 126.6L188.392 126.6C188.732 126.895 189.073 127.19 189.397 127.501C189.619 127.714 189.819 127.952 190.019 128.189L190.019 128.189C190.268 128.484 190.515 128.778 190.805 129.024C191.751 129.829 192.713 130.614 193.675 131.4C194.404 131.996 195.134 132.592 195.857 133.196C196.505 133.738 197.144 134.291 197.782 134.845C198.428 135.404 199.073 135.964 199.728 136.511C200.624 137.26 201.533 137.998 202.481 138.675C202.928 138.995 203.396 139.284 203.864 139.574L203.864 139.574C204.348 139.874 204.831 140.173 205.292 140.506C205.844 140.904 206.273 140.68 206.699 140.457C206.846 140.38 206.993 140.303 207.144 140.252C208.373 139.837 209.345 139.993 209.806 141.175C209.898 141.412 210.039 141.625 210.181 141.839C210.439 142.229 210.7 142.623 210.678 143.173C210.671 143.345 211.042 143.55 211.36 143.726L211.361 143.726L211.363 143.727L211.366 143.729L211.368 143.73C211.407 143.751 211.444 143.772 211.48 143.793C211.513 143.811 211.544 143.829 211.573 143.846C212.509 144.398 213.457 144.931 214.405 145.463C214.607 145.577 214.816 145.681 215.025 145.784C215.428 145.983 215.829 146.182 216.179 146.45C216.535 146.723 216.858 147.039 217.181 147.354L217.181 147.355L217.181 147.355L217.181 147.355L217.181 147.355L217.181 147.355L217.181 147.355L217.181 147.355C217.505 147.672 217.829 147.989 218.186 148.262C218.922 148.825 219.339 149.6 219.753 150.37C219.905 150.653 220.057 150.935 220.224 151.206C220.686 151.954 220.952 152.872 221.106 153.749C221.313 154.931 221.397 156.148 221.392 157.349C221.39 157.851 221.085 158.389 220.806 158.842C220.505 159.329 220.053 159.399 219.618 158.928C219.582 158.889 219.532 158.864 219.482 158.838C219.459 158.827 219.436 158.815 219.414 158.802C219.41 158.831 219.407 158.861 219.404 158.89C219.397 158.954 219.391 159.018 219.382 159.081C219.354 159.283 219.332 159.486 219.31 159.69C219.255 160.191 219.201 160.692 219.06 161.168C218.966 161.486 218.557 161.907 218.273 161.921C218.055 161.931 217.826 161.728 217.599 161.528L217.599 161.527C217.507 161.447 217.417 161.367 217.327 161.301C217.24 161.236 217.166 161.153 217.093 161.07L217.092 161.07L217.069 161.044C217.037 161.008 217.008 160.97 216.979 160.931L216.954 160.897L216.944 160.882L216.942 160.88C216.924 160.855 216.906 160.83 216.887 160.806C216.874 160.835 216.86 160.864 216.846 160.894L216.837 160.913C216.824 160.942 216.811 160.97 216.798 160.998C216.784 161.026 216.77 161.054 216.756 161.083C216.715 161.163 216.679 161.249 216.643 161.335C216.563 161.529 216.483 161.722 216.344 161.854C215.808 162.364 215.088 162.165 214.867 161.449C214.752 161.077 214.657 160.698 214.562 160.32L214.562 160.319C214.429 159.795 214.297 159.271 214.114 158.765C214.039 158.556 213.976 158.344 213.914 158.131C213.731 157.508 213.548 156.884 213.035 156.359C212.666 155.982 212.44 155.461 212.215 154.942C212.128 154.74 212.04 154.538 211.945 154.346C211.369 153.187 210.418 152.429 209.319 151.818C209.02 151.651 208.722 151.468 208.462 151.248C207.886 150.758 207.487 151.025 207.136 151.523C206.557 152.347 205.596 152.65 204.703 152.176C203.335 151.449 202.217 150.494 201.845 148.858C201.776 148.556 201.329 148.289 201.002 148.104C200.016 147.548 199.025 147.003 198.033 146.457C196.389 145.553 194.745 144.648 193.128 143.697C191.111 142.51 189.147 141.234 187.184 139.958L187.184 139.958L187.184 139.958L187.183 139.957L187.183 139.957L187.183 139.957L187.183 139.957L187.182 139.957L186.59 139.572C183.495 137.562 180.411 135.534 177.327 133.507L177.322 133.503C176.719 133.107 176.116 132.71 175.514 132.314C174.838 131.87 174.167 131.419 173.496 130.968L173.495 130.968L173.495 130.967L173.494 130.967L173.494 130.967L173.493 130.966L173.493 130.966L173.492 130.966C173.024 130.65 172.555 130.335 172.084 130.022C171.896 129.897 171.698 129.785 171.494 129.688C170.885 129.401 170.706 129.505 170.658 130.157C170.656 130.181 170.658 130.206 170.657 130.23L170.619 132.985C170.583 135.504 170.548 138.023 170.511 140.543C170.499 141.348 170.921 141.966 171.336 142.574L171.337 142.575L171.337 142.575L171.337 142.575C171.421 142.698 171.505 142.821 171.585 142.944C173.051 145.215 174.548 147.467 176.06 149.709C176.475 150.324 176.904 150.929 177.334 151.534L177.335 151.534L177.335 151.534L177.335 151.534L177.335 151.534L177.335 151.535L177.335 151.535L177.335 151.535C177.983 152.447 178.632 153.36 179.227 154.305C179.53 154.785 179.71 155.342 179.891 155.898C179.97 156.143 180.049 156.387 180.139 156.625C180.152 156.659 180.165 156.693 180.178 156.727L180.205 156.795L180.224 156.844L180.266 156.949C180.382 157.24 180.498 157.531 180.571 157.833C181.16 160.269 180.894 162.686 180.312 165.078C180.274 165.238 180.235 165.398 180.196 165.558C179.835 167.052 179.471 168.552 178.944 169.989C178.521 171.14 177.993 172.253 177.465 173.366L177.464 173.367C177.21 173.903 176.956 174.439 176.713 174.979C176.29 175.923 175.88 176.873 175.475 177.825C174.789 179.44 174.106 181.056 173.431 182.675C173.187 183.26 172.951 183.849 172.715 184.437L172.714 184.44L172.714 184.442L172.713 184.444L172.712 184.446C172.238 185.63 171.763 186.814 171.224 187.968C170.448 189.63 169.585 191.251 168.723 192.872L168.722 192.874L168.721 192.876C168.598 193.108 168.474 193.339 168.352 193.57C167.813 194.585 167.262 195.592 166.71 196.599L166.71 196.599L166.71 196.599L166.71 196.6L166.71 196.6L166.71 196.6L166.71 196.6L166.709 196.601L166.708 196.603C166.174 197.578 165.64 198.553 165.118 199.535C164.642 200.431 164.179 201.333 163.715 202.236C163.22 203.201 162.724 204.166 162.213 205.122C161.487 206.481 160.726 207.821 159.943 209.148C159.292 210.252 159.48 210.766 160.235 211.783C161.052 212.885 162.322 213.253 163.582 213.541C167.038 214.33 170.501 215.087 173.963 215.844L174.139 215.882C174.488 215.959 174.841 216.016 175.194 216.072L175.195 216.073C175.592 216.136 175.988 216.2 176.378 216.292C178.329 216.748 179.308 218.183 179.83 219.963C180.164 221.102 180.262 222.325 179.355 223.271C179.013 223.629 178.387 223.894 177.889 223.896C171.479 223.917 165.069 223.921 158.66 223.925H158.643C154.604 223.927 150.565 223.929 146.525 223.936C146.054 223.937 146.02 223.795 145.985 223.381C145.948 222.96 145.873 222.539 145.799 222.12C145.689 221.503 145.579 220.888 145.593 220.275C145.658 217.326 146.691 214.685 148.499 212.366C148.63 212.198 148.841 212.087 149.05 211.978C149.283 211.856 149.511 211.737 149.621 211.543C150.148 210.611 150.6 209.619 150.946 208.605C151.501 206.98 152.053 205.34 152.409 203.665C152.572 202.895 152.809 202.149 153.045 201.402C153.339 200.474 153.633 199.545 153.789 198.568C153.953 197.536 154.382 196.542 154.808 195.555C154.94 195.248 155.072 194.942 155.196 194.636C155.617 193.593 156.053 192.555 156.488 191.517L156.489 191.516L156.489 191.515L156.489 191.514L156.49 191.514L156.49 191.513L156.49 191.512L156.491 191.511L156.491 191.511L156.491 191.511L156.491 191.51L156.491 191.51L156.491 191.51L156.491 191.509L156.491 191.509C157.169 189.894 157.846 188.28 158.471 186.645C158.917 185.48 159.287 184.285 159.657 183.09L159.657 183.09C159.868 182.408 160.079 181.726 160.304 181.049C160.78 179.617 161.264 178.186 161.81 176.78C161.933 176.464 161.864 176.458 161.692 176.445L161.692 176.445C161.66 176.442 161.624 176.439 161.586 176.434C159.282 176.128 157.013 176.155 154.865 177.18C154.394 177.405 154.063 177.358 153.751 176.967C153.433 176.567 153.599 176.276 153.88 175.909C155.559 173.723 156.602 171.233 157.402 168.606C157.486 168.331 157.572 168.056 157.658 167.782C158.178 166.126 158.696 164.476 158.682 162.716C158.671 161.384 158.342 160.188 157.426 159.073C157.225 158.828 157.04 158.572 156.856 158.316L156.856 158.316C156.306 157.553 155.764 156.801 154.82 156.407C154.343 156.208 153.872 155.993 153.4 155.778C152.91 155.555 152.42 155.331 151.923 155.126C151.545 154.969 151.168 154.812 150.791 154.654L150.791 154.654L150.79 154.653L150.79 154.653L150.789 154.653L150.789 154.653C149.3 154.03 147.811 153.407 146.292 152.869C145.37 152.542 144.415 152.308 143.46 152.074C143.025 151.968 142.591 151.862 142.16 151.747C142.075 151.724 141.992 151.697 141.908 151.671C141.841 151.649 141.774 151.628 141.707 151.609C140.725 151.329 139.868 151.377 139.201 152.324C138.909 152.74 138.507 153.078 138.086 153.433L138.086 153.433L138.085 153.434L137.962 153.538C137.919 153.574 137.877 153.61 137.834 153.647C136.248 155.211 134.733 156.772 133.223 158.339ZM169.392 130.757L169.393 130.756C169.477 130.333 169.562 129.91 169.608 129.483L169.62 129.364C169.719 128.448 169.819 127.518 169.754 126.607C169.72 126.135 169.595 125.671 169.469 125.206L169.469 125.206C169.367 124.83 169.265 124.452 169.211 124.07C168.929 122.058 168.675 120.04 168.48 118.018C168.31 116.26 168.196 114.496 168.083 112.733L168.083 112.732C168.067 112.485 168.051 112.239 168.035 111.992C167.921 110.232 167.815 108.47 167.746 106.708C167.68 105.018 167.647 103.327 167.614 101.636V101.636L167.601 100.925C167.598 100.818 167.635 100.712 167.671 100.604C167.695 100.536 167.718 100.467 167.732 100.398C167.747 100.32 167.766 100.241 167.785 100.163C167.837 99.9449 167.889 99.7259 167.87 99.5143C167.848 99.2816 167.796 99.0498 167.744 98.8186L167.744 98.8186L167.744 98.8183C167.673 98.5046 167.602 98.1922 167.61 97.8804C167.662 95.8147 167.755 93.75 167.849 91.6854L167.849 91.6842L167.89 90.7699C167.91 90.3262 167.967 89.8824 168.034 89.4429C168.225 88.2071 168.422 86.9725 168.62 85.7379L168.62 85.7357L168.621 85.7332L168.621 85.7308L168.622 85.7283L168.622 85.7259L168.622 85.7231L168.623 85.7204L168.762 84.8513C168.778 84.7505 168.8 84.6506 168.821 84.5507L168.821 84.5503C168.831 84.5039 168.841 84.4575 168.851 84.411C168.857 84.4627 168.864 84.5144 168.871 84.5661C168.887 84.677 168.903 84.7879 168.905 84.8991C168.95 87.2105 168.993 89.5218 169.036 91.8332L169.036 91.8523L169.053 92.7273C169.067 93.5054 169.082 94.2834 169.097 95.0615C169.132 96.9171 169.168 98.7728 169.197 100.628C169.217 101.856 169.232 103.085 169.247 104.313V104.313V104.313V104.313V104.313V104.313V104.313V104.313L169.247 104.315C169.274 106.548 169.302 108.781 169.354 111.013C169.394 112.678 169.5 114.345 169.647 116.004C169.756 117.221 169.914 118.433 170.072 119.645L170.072 119.645L170.072 119.646L170.072 119.646L170.072 119.647L170.072 119.647L170.072 119.648L170.072 119.648C170.123 120.033 170.173 120.418 170.221 120.803C170.289 121.341 170.363 121.878 170.438 122.415C170.567 123.355 170.696 124.294 170.793 125.237C170.916 126.435 171.493 127.404 172.322 128.172C172.927 128.733 173.61 129.21 174.292 129.687L174.292 129.687C174.562 129.876 174.831 130.064 175.096 130.258C175.648 130.662 176.199 131.07 176.749 131.477L176.75 131.478C178.131 132.502 179.513 133.526 180.933 134.493C182.201 135.358 183.507 136.168 184.813 136.978C185.445 137.37 186.077 137.762 186.705 138.161C187.309 138.544 187.91 138.931 188.511 139.317C189.58 140.004 190.648 140.691 191.73 141.357L191.934 141.483L191.935 141.484L191.936 141.484C193.917 142.705 195.9 143.926 197.929 145.064C198.893 145.605 199.916 146.044 200.936 146.483L200.936 146.483L200.936 146.483L200.937 146.483L200.937 146.483L200.937 146.483L200.937 146.483L200.937 146.483C201.199 146.596 201.461 146.708 201.721 146.822C201.873 146.889 202.222 146.813 202.294 146.692C202.464 146.406 202.574 146.083 202.684 145.762L202.72 145.656L202.75 145.57C203.177 144.353 203.716 143.217 204.637 142.269C205.332 141.554 205.234 141.339 204.269 140.933C204.216 140.911 204.164 140.888 204.111 140.866L204.107 140.865C203.703 140.696 203.296 140.526 202.93 140.296C202.249 139.866 201.588 139.4 200.952 138.906C200.387 138.468 199.821 138.031 199.255 137.594C197.347 136.121 195.437 134.647 193.581 133.11C191.853 131.679 190.211 130.136 188.603 128.569C188.379 128.352 188.153 128.136 187.927 127.92L187.926 127.919C186.558 126.61 185.184 125.297 184.316 123.561C184.197 123.324 184.059 123.094 183.922 122.865C183.522 122.2 183.123 121.535 183.182 120.662C183.218 120.127 183.146 119.585 183.075 119.043L183.075 119.043L183.075 119.042C183.049 118.846 183.023 118.651 183.003 118.456C182.947 117.932 182.881 117.408 182.815 116.884L182.815 116.883L182.814 116.881L182.814 116.88L182.814 116.878L182.814 116.877L182.814 116.875L182.814 116.873L182.813 116.873C182.677 115.795 182.541 114.717 182.496 113.635C182.434 112.174 182.448 110.71 182.462 109.245C182.468 108.615 182.474 107.985 182.474 107.355C182.474 107.207 182.47 107.058 182.465 106.91C182.456 106.586 182.446 106.262 182.482 105.943C182.655 104.39 182.832 102.836 183.066 101.291C183.111 100.989 183.156 100.687 183.2 100.385L183.2 100.384C183.418 98.9051 183.636 97.4227 183.996 95.9777C184.311 94.7176 184.696 93.4757 185.082 92.2336C185.388 91.251 185.693 90.2682 185.963 89.2761C186.157 88.5623 186.371 87.8536 186.585 87.1448C187.12 85.3708 187.656 83.5963 187.883 81.7406C187.933 81.3361 188.035 80.9332 188.137 80.5318C188.287 79.9411 188.437 79.3536 188.416 78.7687C188.341 76.6556 187.752 74.6195 187.159 72.5869C186.274 69.5505 184.739 67.018 182.082 65.2155C180.549 64.1756 178.943 63.414 177.041 63.6587C176.352 63.7475 175.669 63.8897 174.986 64.032C174.657 64.1005 174.329 64.1689 174 64.2314C172.131 64.5861 170.477 65.4108 168.988 66.5701C168.116 67.2488 167.265 67.9567 166.437 68.6885C165.609 69.4201 164.782 70.1601 164.028 70.9653C163.326 71.7142 162.674 72.5097 162.022 73.3046C161.88 73.4776 161.738 73.6505 161.595 73.823C160.475 75.1805 159.357 76.541 158.261 77.9182C157.78 78.5215 157.31 79.1327 156.84 79.7439L156.839 79.744L156.839 79.7441L156.839 79.7441L156.839 79.7442L156.839 79.7442L156.839 79.7443L156.839 79.7443C156.128 80.6679 155.417 81.5915 154.673 82.4872C153.323 84.1119 151.922 85.6956 150.5 87.258C148.546 89.405 146.558 91.5208 144.57 93.6362C144.4 93.8165 144.205 93.9738 144.01 94.1309L144.01 94.1309C143.777 94.3192 143.543 94.5072 143.356 94.7339C141.917 96.4713 140.561 98.2836 139.599 100.33C138.711 102.218 137.856 104.12 137.002 106.023C136.233 107.733 135.465 109.442 134.673 111.141C133.389 113.895 131.977 116.578 130.272 119.11L130.146 119.296C129.233 120.654 128.319 122.013 127.032 123.003C125.354 124.293 123.608 125.494 121.861 126.694L121.861 126.695L121.859 126.696C121.404 127.009 120.949 127.322 120.495 127.636C119.022 128.657 117.857 129.945 117.284 131.641C116.58 133.724 116.94 135.793 117.922 137.691C119.132 140.028 121.045 141.814 123 143.516C125.168 145.405 127.688 146.759 130.407 147.63C133.901 148.749 137.416 149.836 141.112 150.153C142.078 150.235 143.041 150.362 144.003 150.489L144.004 150.489L144.004 150.489L144.004 150.489L144.004 150.489L144.004 150.489L144.005 150.489L144.005 150.489L144.005 150.489C145.079 150.63 146.152 150.772 147.231 150.852C149.615 151.03 152.011 151.129 154.402 151.142C155.477 151.148 156.553 151.073 157.629 150.999C158.312 150.951 158.995 150.904 159.678 150.877C161.536 150.804 163.295 150.316 165.028 149.7C166.193 149.286 167.27 148.716 167.696 147.459C167.944 146.727 168.067 145.943 168.168 145.173L168.195 144.974C168.41 143.347 168.625 141.718 168.747 140.083C168.86 138.577 168.919 137.067 168.98 135.502L168.98 135.501L168.98 135.501L168.98 135.501L168.98 135.5L168.98 135.5C169.003 134.91 169.026 134.312 169.053 133.704C169.068 133.508 169.08 133.312 169.092 133.116C169.119 132.674 169.146 132.232 169.207 131.794C169.255 131.447 169.324 131.102 169.392 130.757ZM107.426 176.144C107.504 176.215 107.682 176.26 107.769 176.22C108.167 176.039 108.573 175.868 108.978 175.697L108.979 175.696L108.979 175.696L108.98 175.696C109.969 175.279 110.959 174.861 111.851 174.29C113.443 173.27 114.996 172.19 116.549 171.11L116.551 171.109C117.77 170.261 118.988 169.414 120.226 168.596C122.925 166.81 125.292 164.636 127.66 162.461L127.66 162.461L127.66 162.461L127.661 162.461L127.661 162.46L127.661 162.46L127.662 162.46L127.662 162.459L127.662 162.459C128.123 162.036 128.583 161.613 129.046 161.193C129.766 160.54 130.443 159.839 131.119 159.139L131.12 159.139L131.12 159.138L131.121 159.138L131.121 159.137L131.122 159.137L131.122 159.136C131.268 158.985 131.413 158.835 131.559 158.685C132.364 157.856 133.162 157.021 133.96 156.185C134.306 155.822 134.652 155.46 134.999 155.098C135.248 154.839 135.497 154.58 135.746 154.32L135.747 154.32C136.652 153.379 137.557 152.439 138.433 151.473C138.537 151.359 138.407 150.79 138.289 150.754C137.792 150.604 137.285 150.481 136.779 150.358L136.779 150.358L136.779 150.358C136.137 150.202 135.496 150.046 134.873 149.834L134.556 149.726C131.979 148.848 129.399 147.97 126.877 146.95C124.568 146.016 122.428 144.733 120.516 143.106C120.486 143.081 120.349 143.114 120.334 143.15C119.782 144.484 118.754 145.394 117.722 146.306C117.487 146.514 117.252 146.722 117.022 146.936C115.939 147.941 114.864 148.972 113.915 150.1C113.302 150.829 112.78 151.636 112.258 152.442L112.258 152.442C112.067 152.739 111.875 153.035 111.679 153.327C111.457 153.658 111.223 153.983 110.989 154.308C110.414 155.106 109.839 155.905 109.446 156.784C108.567 158.745 107.206 160.308 105.785 161.831C104.388 163.328 102.484 163.885 100.604 164.435L100.603 164.435L100.603 164.436L100.603 164.436L100.602 164.436L100.392 164.497C100.288 164.528 100.184 164.559 100.08 164.589C99.3899 164.795 98.6797 164.933 97.9693 165.071L97.9691 165.071L97.9689 165.071L97.9687 165.071L97.9685 165.071L97.9683 165.071L97.968 165.071L97.9678 165.071C97.5781 165.147 97.1882 165.223 96.8015 165.31C96.7033 165.332 96.615 165.398 96.5267 165.464C96.4859 165.495 96.445 165.525 96.4031 165.552C96.4485 165.606 96.495 165.676 96.5415 165.746C96.6417 165.897 96.7419 166.048 96.831 166.041C97.7386 165.977 98.4166 166.443 99.0829 166.902L99.0833 166.902L99.0836 166.902C99.2611 167.024 99.4377 167.146 99.6176 167.257C100.496 167.797 101.359 168.38 101.871 169.387C102.203 170.04 102.649 170.637 103.095 171.231L103.095 171.232L103.095 171.232C103.232 171.414 103.368 171.596 103.501 171.78C104.048 172.535 104.62 173.273 105.242 174.077L105.243 174.077L105.375 174.247L105.595 174.452L105.841 174.682L105.842 174.682L105.842 174.683C106.367 175.173 106.893 175.663 107.426 176.144ZM152.238 153.505C152.794 153.801 153.386 154.026 153.978 154.252C155.144 154.695 156.311 155.139 157.202 156.123C157.472 156.421 157.784 156.682 158.095 156.943C158.298 157.112 158.501 157.282 158.692 157.462C159.327 158.059 159.546 158.856 159.764 159.65L159.765 159.651C159.796 159.766 159.828 159.881 159.861 159.995C160.46 162.079 160.324 164.236 159.798 166.235L159.696 166.623C158.996 169.294 158.285 172.004 156.797 174.401C156.624 174.679 156.534 174.828 157.008 174.842C158.284 174.878 159.56 174.926 160.836 174.974C162.242 175.026 163.648 175.079 165.055 175.117C165.937 175.141 166.82 175.135 167.703 175.129C168.311 175.125 168.92 175.121 169.528 175.127C171.121 175.142 172.669 174.912 174.118 174.236C174.148 174.222 174.178 174.208 174.209 174.194L174.296 174.154L174.296 174.154L174.296 174.154L174.297 174.154C174.792 173.928 175.352 173.672 175.576 173.265C176.146 172.229 176.549 171.089 176.917 169.958C177.455 168.302 177.988 166.636 178.363 164.938C178.683 163.489 178.845 161.994 178.946 160.51C178.976 160.064 178.9 159.612 178.824 159.159C178.764 158.798 178.703 158.437 178.695 158.077C178.665 156.664 177.996 155.514 177.327 154.363L177.209 154.161C177.053 153.892 176.854 153.649 176.654 153.406C176.497 153.216 176.341 153.026 176.205 152.822C175.13 151.215 174.06 149.605 172.989 147.994C172.233 146.857 171.478 145.72 170.72 144.583C170.647 144.474 170.553 144.379 170.459 144.284L170.459 144.284C170.416 144.24 170.372 144.196 170.331 144.15C170.288 144.214 170.239 144.277 170.19 144.34C170.082 144.477 169.974 144.614 169.942 144.767C169.868 145.122 169.82 145.483 169.771 145.843V145.843C169.73 146.15 169.689 146.457 169.632 146.76C169.303 148.522 168.459 149.876 166.799 150.747C164.51 151.947 162.051 152.46 159.537 152.749C158.088 152.915 156.612 152.942 155.152 152.895C154.275 152.866 153.4 152.758 152.526 152.649H152.525H152.525H152.525H152.525H152.525H152.525H152.525C152.051 152.591 151.577 152.532 151.103 152.486C150.975 152.474 150.842 152.512 150.71 152.551C150.648 152.569 150.587 152.587 150.526 152.599L150.567 152.633L150.597 152.657L150.638 152.69C150.731 152.767 150.825 152.843 150.922 152.914C150.943 152.929 150.966 152.94 150.995 152.953C151.04 152.975 151.099 153.003 151.182 153.062C151.293 153.109 151.406 153.152 151.519 153.195C151.764 153.289 152.009 153.383 152.238 153.505ZM182.494 41.3421C181.569 42.6949 181.01 44.2377 180.729 45.8594C180.442 47.5074 180.402 49.1739 180.885 50.7824C181.17 51.7321 181.493 52.6706 181.816 53.609L181.816 53.6095L181.816 53.6097L181.816 53.61L181.816 53.6102C182.189 54.6962 182.563 55.7822 182.878 56.885C183.073 57.5661 183.513 57.885 184 58.0565C186.298 58.8658 188.794 57.8816 190.221 55.7691C190.608 55.1957 190.385 54.9604 189.991 54.5595C189.459 54.0169 188.992 53.3883 188.596 52.7367C188.003 51.764 188.254 50.7724 188.932 49.9869C189.611 49.2007 190.63 49.026 191.578 49.3554C192.662 49.7317 193.442 50.5602 193.998 51.5747C194.024 51.6223 194.042 51.6739 194.061 51.7255L194.071 51.7537C194.077 51.7682 194.082 51.7827 194.088 51.797C194.094 51.7841 194.1 51.7712 194.107 51.7584C194.121 51.7309 194.134 51.7034 194.144 51.6744C194.225 51.4256 194.304 51.1752 194.383 50.9248L194.383 50.9243L194.383 50.9238L194.383 50.9234L194.383 50.9228L194.383 50.922L194.384 50.9212L194.384 50.92C194.799 49.5972 195.216 48.2708 196.055 47.1422C196.709 46.2625 197.413 45.3852 198.244 44.683C198.865 44.158 199.631 43.7928 200.383 43.4344C200.493 43.382 200.603 43.3298 200.712 43.2772C200.969 43.1532 201.225 43.0267 201.481 42.9001L201.482 42.8999C202.559 42.368 203.64 41.8341 204.775 41.4787C204.965 41.419 205.061 41.3896 205.106 41.3759C205.131 41.3682 205.14 41.3655 205.14 41.3653C205.14 41.3652 205.137 41.3657 205.134 41.3666C205.074 41.3799 204.69 41.4655 208.439 40.1134C213.674 38.2255 210.981 32.2786 209.431 30.9703C209.316 30.8729 209.132 30.7682 209.008 30.7951C208.897 30.8192 208.755 31.0136 208.743 31.1433C208.627 32.4433 206.722 34.4607 202.196 34.1475C199.098 33.9331 199.031 33.9455 198.883 33.9727C198.814 33.9852 198.729 34.001 198.321 33.9991C197.345 33.9946 193.967 34.3092 193.283 34.5023C193.035 34.5724 192.711 34.6401 192.33 34.7198L192.33 34.7199L192.33 34.7199L192.329 34.72L192.329 34.7201L192.329 34.7201C190.509 35.1003 187.388 35.7525 185.027 38.2255C184.765 38.5433 184.497 38.856 184.228 39.1687C183.622 39.8739 183.016 40.579 182.494 41.3421ZM194.872 54.2498C194.872 54.9073 194.741 55.5543 194.609 56.2011L194.609 56.2014C194.546 56.5123 194.482 56.8231 194.434 57.1351C194.426 57.1843 194.4 57.2307 194.375 57.2772C194.363 57.2988 194.351 57.3203 194.341 57.3422C194.335 57.3211 194.33 57.3002 194.324 57.2792C194.312 57.2343 194.3 57.1894 194.291 57.1438C194.231 56.8254 194.175 56.5061 194.119 56.1867C193.993 55.464 193.867 54.7414 193.694 54.03C193.487 53.1772 193.257 52.3081 192.875 51.5259C192.433 50.6214 190.581 50.1946 189.67 50.6691C189.151 50.9396 188.902 51.5882 189.239 52.0593C189.557 52.505 189.948 52.9606 190.413 53.2258C191.177 53.6614 191.425 54.3877 191.487 55.0997C191.604 56.4385 190.199 58.3211 188.834 58.6596C187.592 58.9675 186.327 59.1816 185.063 59.3955L185.063 59.3956L185.062 59.3957C184.764 59.4462 184.466 59.4966 184.169 59.5482C184.138 59.5535 184.107 59.5586 184.077 59.5635C183.679 59.6292 183.363 59.6815 183.489 60.2643C183.831 61.8465 183.943 63.4404 183.656 65.0497C183.638 65.1474 183.816 65.3007 183.929 65.3975C184.074 65.521 184.226 65.6374 184.378 65.7537L184.378 65.7538C184.657 65.9677 184.936 66.1813 185.167 66.4388C185.547 66.8619 185.901 67.3079 186.255 67.7541L186.255 67.7543L186.255 67.7545L186.255 67.7547L186.255 67.7548L186.255 67.755L186.255 67.7552L186.256 67.7553C186.498 68.0614 186.741 68.3675 186.992 68.6663C187.058 68.7443 187.322 68.7769 187.385 68.7165C187.708 68.4083 188.022 68.0913 188.336 67.7743C188.704 67.4031 189.072 67.0319 189.453 66.675C190.374 65.8123 191.319 64.9734 192.274 64.1491C192.398 64.0424 192.569 63.9901 192.739 63.9378C192.818 63.9136 192.897 63.8895 192.971 63.86C192.94 63.9314 192.91 64.0032 192.879 64.075C192.796 64.2712 192.714 64.4674 192.616 64.6557C192.599 64.6886 192.549 64.7019 192.498 64.7159C192.453 64.7279 192.407 64.7404 192.377 64.7663C192.362 64.7797 192.347 64.7928 192.332 64.8056L192.33 64.8067C192.146 64.9637 192.011 65.0792 192.42 65.274C192.852 65.4801 193.252 65.7531 193.653 66.0261C193.82 66.1402 193.988 66.2543 194.158 66.3636C196.772 68.0457 199.588 68.8356 202.706 68.3244C204.469 68.0353 205.679 67.0972 206.217 65.362C206.732 63.6998 206.518 63.2162 204.929 62.5482C204.876 62.5259 204.823 62.5038 204.77 62.4817L204.767 62.4803C203.929 62.1319 203.097 61.7859 202.877 60.7592C202.787 60.3371 203.568 59.8821 203.741 60.2777C203.742 60.2802 203.742 60.2827 203.743 60.2853C203.913 61.0595 204.5 61.3269 205.12 61.6059C206.26 62.1189 206.399 62.0471 206.399 60.8772C206.399 59.3456 206.399 59.3456 207.742 58.8685C208.52 58.5921 208.646 58.3218 208.292 57.5659C207.758 56.4244 207.409 55.2614 207.557 53.9707C207.739 52.3801 207.891 50.7844 207.991 49.1868C208.056 48.1601 208.117 47.1096 207.97 46.1004C207.876 45.4541 207.645 44.8278 207.415 44.2015L207.414 44.2013L207.414 44.2005L207.414 44.1998C207.315 43.9309 207.216 43.6621 207.128 43.3917C206.92 42.7552 206.42 42.4995 205.767 42.7349C205.36 42.8817 204.95 43.0232 204.54 43.1648L204.54 43.1649L204.54 43.1649L204.54 43.165L204.54 43.165L204.539 43.1651L204.539 43.1652L204.538 43.1656C203.395 43.5604 202.251 43.9555 201.162 44.4649C200.014 45.0012 198.853 45.6663 197.96 46.5428C197.159 47.3303 194.872 51.2971 194.872 54.2498ZM100.647 178.193C101.131 178.085 101.616 177.978 102.1 177.871C103.153 177.638 104.205 177.405 105.255 177.163C105.406 177.128 105.547 177.05 105.688 176.972C105.754 176.935 105.819 176.899 105.886 176.868C105.83 176.835 105.773 176.803 105.716 176.771L105.716 176.771C105.584 176.697 105.453 176.623 105.332 176.535C105.199 176.437 105.086 176.309 104.975 176.183L104.969 176.177C104.655 175.82 104.335 175.467 104.016 175.114L104.016 175.114L104.015 175.113L104.015 175.113L104.015 175.113C103.236 174.252 102.458 173.392 101.747 172.479C101.044 171.575 100.485 170.552 99.9337 169.542L99.9337 169.542L99.9199 169.516C99.6482 169.019 99.3397 168.808 98.8171 168.991C96.595 169.767 94.2945 170.19 91.9941 170.614L91.9939 170.614C90.7938 170.835 89.5937 171.056 88.4048 171.327C86.4562 171.771 76.6466 173.458 75.7924 173.519C75.3764 173.549 74.9605 173.591 74.5446 173.634C73.7361 173.716 72.9279 173.798 72.1205 173.789C70.0572 173.766 68.0346 173.988 66.0138 174.38C65.3766 174.504 64.7304 174.582 64.0843 174.66C63.3465 174.75 62.609 174.839 61.8856 174.996C59.5564 175.501 58.776 177.489 59.3761 179.432C59.4913 179.805 59.903 180.226 60.2725 180.357C61.9574 180.953 63.7212 181.108 65.5041 181.122C66.4223 181.129 67.3403 181.171 68.2582 181.214H68.2585H68.2587C68.609 181.23 68.9592 181.247 69.3095 181.261C70.6278 181.315 71.9461 181.37 73.2644 181.424H73.2649H73.2653C74.2891 181.467 75.3129 181.51 76.3367 181.552C76.4094 181.555 76.4824 181.554 76.5553 181.553C76.6284 181.551 76.7014 181.55 76.7742 181.553C77.134 181.568 77.4943 181.593 77.8547 181.617C78.6431 181.671 79.4314 181.725 80.2135 181.676C81.4393 181.601 82.6607 181.456 83.8822 181.311L83.8827 181.311L83.8832 181.311L83.8837 181.311L83.8842 181.311L83.8847 181.311L83.8852 181.311L83.8857 181.311L83.889 181.31L83.8923 181.31L83.8955 181.309L83.8988 181.309L83.9021 181.309C84.4644 181.242 85.0268 181.175 85.5896 181.115C85.9379 181.078 86.2872 181.048 86.6365 181.018C87.27 180.963 87.9033 180.908 88.5306 180.813L88.8471 180.765L88.8475 180.765L88.848 180.765C90.4503 180.522 92.0556 180.278 93.6363 179.929C94.8644 179.658 96.084 179.349 97.3301 179.032C98.2423 178.8 99.1687 178.565 100.123 178.338C100.178 178.323 100.233 178.307 100.288 178.29C100.407 178.255 100.526 178.22 100.647 178.193ZM156.236 211.977C156.991 210.893 157.705 209.779 158.397 208.653C159.027 207.63 159.615 206.582 160.203 205.534C160.73 204.596 161.276 203.669 161.823 202.742C163.091 200.592 164.36 198.441 165.378 196.147C165.964 194.825 166.644 193.545 167.323 192.265L167.323 192.265L167.323 192.264C167.647 191.654 167.971 191.044 168.285 190.429C168.433 190.139 168.583 189.851 168.734 189.563L168.734 189.562L168.734 189.562L168.734 189.562L168.734 189.562L168.734 189.562L168.734 189.562C169.148 188.771 169.561 187.979 169.916 187.163C170.184 186.545 170.419 185.912 170.654 185.279C171.016 184.306 171.377 183.334 171.856 182.423C172.627 180.96 173.139 179.415 173.65 177.869C173.816 177.367 173.982 176.865 174.157 176.366C174.184 176.288 174.202 176.207 174.219 176.126L174.219 176.126C174.224 176.101 174.23 176.076 174.235 176.052C174.238 176.039 174.241 176.026 174.244 176.013C174.204 176.021 174.162 176.028 174.121 176.036L174.12 176.036C174.029 176.051 173.938 176.067 173.85 176.093C173.675 176.145 173.5 176.208 173.326 176.272L173.326 176.272L173.326 176.272L173.325 176.272L173.325 176.272C172.962 176.404 172.6 176.536 172.23 176.565C170.846 176.674 169.453 176.721 168.064 176.72C167.205 176.72 166.347 176.686 165.488 176.652H165.488H165.487H165.487H165.487H165.486H165.486H165.486C164.932 176.631 164.378 176.609 163.823 176.596C163.72 176.593 163.559 176.723 163.518 176.827L163.365 177.212L163.365 177.212L163.365 177.212L163.365 177.213L163.365 177.213L163.365 177.213L163.365 177.213L163.365 177.213C163.018 178.088 162.671 178.964 162.368 179.854C161.613 182.073 160.88 184.3 160.156 186.53C159.238 189.361 158.107 192.092 156.861 194.803C155.706 197.316 154.844 199.991 154.298 202.746C154.042 204.032 153.665 205.294 153.287 206.555L153.287 206.556L153.287 206.556L153.287 206.557L153.287 206.558C153.196 206.861 153.105 207.164 153.016 207.467C152.736 208.421 152.428 209.366 152.119 210.312C152.007 210.653 151.896 210.995 151.786 211.336C151.533 212.119 151.755 212.851 152.371 212.946C153.057 213.052 153.766 213.013 154.537 212.965C155.238 212.867 155.84 212.545 156.236 211.977ZM55.3968 185.051C56.1583 183.799 56.9428 182.665 58.4909 182.327C59.0656 182.201 59.0974 181.902 58.7165 181.42C58.6329 181.315 58.5447 181.21 58.456 181.104C58.1378 180.725 57.8134 180.338 57.6761 179.899C57.5276 179.424 57.5566 178.887 57.585 178.36C57.5923 178.224 57.5996 178.089 57.6039 177.956C57.6543 176.362 58.1043 175.002 59.6821 174.228C60.1502 173.999 60.4313 173.653 59.9617 172.975C58.9036 171.449 57.5012 170.369 55.9551 169.433C55.3491 169.066 54.791 169.284 54.5501 169.924C54.4454 170.203 54.3394 170.481 54.2334 170.759C53.8986 171.638 53.5637 172.517 53.2668 173.408C52.9407 174.387 52.6306 175.371 52.3204 176.355L52.3203 176.356L52.3201 176.356L52.3201 176.356C51.9927 177.395 51.6654 178.434 51.3194 179.466C51.0335 180.319 50.782 181.182 50.5303 182.044C50.0756 183.603 49.6206 185.163 48.9629 186.668C47.4485 190.134 46.2245 193.719 45.6452 197.485C45.6146 197.684 45.6573 198.026 45.7751 198.086C45.9543 198.177 46.2604 198.144 46.4564 198.048C46.7832 197.888 47.1264 197.688 47.3552 197.415C48.0734 196.558 48.7414 195.658 49.4289 194.629C49.9982 193.718 50.5697 192.808 51.1412 191.899C52.571 189.623 54.0008 187.348 55.3968 185.051ZM162.324 214.506L162.181 214.471C160.913 214.163 159.653 213.856 158.918 212.545C158.571 211.927 158.268 211.974 157.918 212.653C157.614 213.242 157.239 213.759 156.64 214.066C156.321 214.23 155.984 214.362 155.645 214.481C153.966 215.077 152.332 215.152 150.86 213.948C150.142 213.362 149.908 213.415 149.348 214.146C148.442 215.327 147.978 216.704 147.516 218.075L147.476 218.192C146.978 219.669 147.248 219.978 148.818 219.978H176.97C177.014 219.978 177.059 219.981 177.105 219.984L177.151 219.988L177.152 219.988C177.293 220 177.434 220.012 177.545 219.961C177.69 219.894 177.883 219.579 177.859 219.552C177.755 219.439 177.654 219.319 177.553 219.199C177.243 218.831 176.929 218.458 176.531 218.256C175.737 217.853 174.847 217.615 173.975 217.394C170.759 216.58 167.533 215.802 164.166 215.01C164.002 214.964 163.838 214.918 163.675 214.871C163.316 214.768 162.957 214.666 162.596 214.574L162.534 214.558L162.455 214.538L162.324 214.506ZM217.651 160.483C217.684 160.607 217.831 160.699 217.979 160.792C218.047 160.834 218.115 160.877 218.172 160.922C218.209 160.87 218.255 160.818 218.301 160.766C218.401 160.654 218.502 160.541 218.508 160.423C218.515 160.267 218.526 160.109 218.536 159.95C218.577 159.335 218.619 158.713 218.497 158.128C218.259 156.984 217.886 155.859 217.461 154.768C217.355 154.496 217.482 154.366 217.6 154.244C217.687 154.155 217.769 154.071 217.756 153.939C217.795 153.964 217.836 153.988 217.877 154.012C217.901 154.026 217.926 154.04 217.951 154.053L217.995 154.078C218.181 154.18 218.368 154.282 218.491 154.436C218.599 154.571 218.649 154.75 218.699 154.932C218.729 155.04 218.759 155.149 218.801 155.249C218.835 155.328 218.869 155.407 218.902 155.486L218.981 155.672L218.981 155.672C219.271 156.36 219.561 157.047 219.897 157.712C219.957 157.83 220.136 157.887 220.316 157.945C220.398 157.971 220.481 157.998 220.552 158.03C220.565 158 220.58 157.97 220.596 157.941C220.616 157.903 220.637 157.866 220.659 157.829C220.743 157.682 220.827 157.535 220.826 157.389C220.819 156.727 220.767 156.064 220.688 155.407C220.682 155.355 220.676 155.303 220.671 155.251C220.665 155.198 220.659 155.146 220.654 155.093C220.604 154.619 220.554 154.136 220.371 153.716C219.814 152.438 219.223 151.163 218.513 149.966C218.063 149.208 217.452 148.5 216.774 147.938C216.172 147.44 215.478 147.049 214.787 146.66L214.787 146.66C214.602 146.556 214.418 146.452 214.235 146.346C213.121 145.7 211.991 145.08 210.859 144.465C210.847 144.459 210.835 144.452 210.822 144.444C210.689 144.369 210.533 144.28 210.394 144.584C210.132 145.157 209.854 145.722 209.576 146.288C209.142 147.17 208.708 148.053 208.336 148.96C208.328 148.98 208.32 149 208.311 149.021C208.165 149.368 207.907 149.98 208.697 150.319C209.545 150.682 210.378 151.204 211.047 151.838C213.014 153.701 213.901 156.192 214.782 158.666L214.851 158.859C215.021 159.336 215.143 159.829 215.264 160.322C215.322 160.557 215.38 160.791 215.442 161.023C215.448 161.042 215.453 161.062 215.459 161.081C215.468 161.113 215.478 161.145 215.488 161.177L215.504 161.229L215.519 161.274L215.537 161.329L215.556 161.39C215.598 161.36 215.646 161.333 215.694 161.305C215.797 161.246 215.901 161.187 215.937 161.1C216.309 160.208 216.421 159.31 216.144 158.341C215.924 157.57 215.844 156.754 215.766 155.951V155.951L215.759 155.878C215.75 155.78 215.886 155.667 216.023 155.555C216.086 155.503 216.15 155.451 216.198 155.4C216.231 155.444 216.269 155.485 216.308 155.527C216.391 155.619 216.474 155.71 216.503 155.816C216.566 156.041 216.624 156.267 216.683 156.498L216.683 156.498C216.791 156.917 216.902 157.35 217.048 157.811C217.099 158.044 217.148 158.278 217.197 158.511C217.337 159.172 217.476 159.832 217.651 160.483ZM208.679 145.58C208.784 145.328 208.909 145.086 209.034 144.844C209.337 144.257 209.641 143.67 209.658 142.93C209.673 142.254 209.55 141.891 209.004 141.557C208.426 141.204 207.768 140.992 207.253 141.398C206.084 142.32 205.005 143.39 204.38 144.762C203.986 145.626 203.702 146.54 203.419 147.454C203.322 147.767 203.225 148.081 203.123 148.392C203.065 148.569 203.093 148.789 203.131 148.98C203.356 150.121 204.208 150.685 205.155 151.163C205.655 151.415 206.025 151.29 206.249 150.796C206.31 150.662 206.371 150.528 206.431 150.393L206.541 150.15L206.707 149.779L206.707 149.778C207.026 149.066 207.35 148.34 207.712 147.584C207.812 147.379 207.915 147.175 208.018 146.971C208.25 146.512 208.482 146.054 208.679 145.58ZM44.0422 197.086C44.5641 195.842 45.0598 194.583 45.4778 193.302C45.7574 192.445 46.0039 191.577 46.2504 190.71L46.2505 190.71C46.4738 189.924 46.697 189.138 46.9448 188.36C47.3337 187.14 47.7416 185.925 48.1495 184.71L48.1497 184.71L48.1499 184.709C48.5311 183.574 48.9123 182.439 49.2781 181.299C49.9628 179.164 50.6306 177.024 51.2984 174.885L51.2989 174.883C51.599 173.921 51.8992 172.959 52.2008 171.998C52.2803 171.745 52.3609 171.492 52.4416 171.239C52.6558 170.567 52.87 169.896 53.062 169.218C53.0905 169.117 53.0326 168.992 52.9746 168.867C52.9478 168.809 52.921 168.751 52.9028 168.695C52.8435 168.735 52.7748 168.77 52.7062 168.804C52.5578 168.88 52.4094 168.955 52.3552 169.074C51.8416 170.198 51.3397 171.33 50.8964 172.483C50.4884 173.545 50.1243 174.624 49.7602 175.702L49.757 175.712L49.7562 175.714C49.6966 175.89 49.637 176.067 49.5772 176.243C49.5094 176.443 49.4414 176.643 49.3734 176.843C48.9913 177.967 48.609 179.09 48.2688 180.226C47.9166 181.402 47.5828 182.584 47.249 183.766L47.2489 183.766L47.2488 183.766C47.0044 184.632 46.76 185.497 46.5084 186.36C46.4161 186.676 46.3247 186.993 46.2332 187.31L46.2331 187.31L46.233 187.311L46.233 187.311C45.8482 188.644 45.4633 189.978 45.0151 191.289C44.7359 192.106 44.4407 192.918 44.1444 193.732C43.7307 194.869 43.3148 196.013 42.9371 197.186C43.4848 197.909 43.6942 197.915 44.0422 197.086ZM167.74 222.681C168.071 222.658 168.403 222.633 168.734 222.609C169.465 222.555 170.197 222.501 170.929 222.465C171.894 222.418 172.86 222.376 173.826 222.334H173.827L173.832 222.333C175.107 222.278 176.382 222.222 177.657 222.155C177.757 222.15 177.853 222.049 177.949 221.949C177.993 221.902 178.038 221.856 178.083 221.818C178.06 221.805 178.038 221.79 178.016 221.776C178 221.765 177.984 221.754 177.969 221.744C177.881 221.684 177.793 221.625 177.696 221.592C177.621 221.567 177.534 221.573 177.448 221.579C177.41 221.582 177.372 221.585 177.334 221.585H148.331C148.286 221.585 148.235 221.579 148.185 221.573C148.075 221.56 147.964 221.548 147.904 221.597C147.695 221.764 147.509 221.979 147.382 222.212C147.356 222.261 147.608 222.556 147.764 222.591C148.195 222.687 148.643 222.747 149.084 222.747C155.279 222.757 161.473 222.754 167.74 222.681ZM209.537 224.934L209.534 224.935C207.314 225.808 205.108 226.676 202.931 227.612C201.444 228.251 199.954 228.35 198.405 228.304C198.274 228.3 198.143 228.27 198.012 228.241L198.012 228.241C197.871 228.209 197.731 228.177 197.59 228.177C197.477 228.178 197.363 228.24 197.25 228.303C197.199 228.331 197.148 228.359 197.097 228.381C197.113 228.406 197.127 228.432 197.142 228.457C197.152 228.476 197.162 228.494 197.172 228.512C197.226 228.61 197.279 228.708 197.358 228.778C197.582 228.979 197.815 229.184 198.079 229.322C200.086 230.373 201.246 233.243 200.537 235.396C200.188 236.453 199.767 237.575 199.062 238.398C198.488 239.067 197.488 239.508 196.596 239.74C195.187 240.106 193.717 240.117 192.296 239.602C191.054 239.152 190.163 238.318 189.505 237.192C187.907 234.455 188.563 232.08 190.263 229.87C190.486 229.58 190.845 229.397 191.208 229.213C191.411 229.11 191.614 229.006 191.795 228.884C191.924 228.796 192.023 228.667 192.123 228.537C192.142 228.513 192.16 228.489 192.179 228.466C192.206 228.431 192.234 228.397 192.262 228.364C192.232 228.357 192.203 228.349 192.173 228.341L192.12 228.326L192.09 228.317L192.023 228.297L192.022 228.297C191.839 228.244 191.657 228.19 191.472 228.182C191.345 228.176 191.216 228.209 191.087 228.242L191.087 228.242C190.968 228.273 190.847 228.304 190.728 228.304L186.214 228.306C175.973 228.313 165.731 228.319 155.49 228.303C153.017 228.299 150.545 228.262 148.072 228.225C146.617 228.203 145.162 228.182 143.707 228.167C142.631 228.156 141.556 228.159 140.48 228.161C139.991 228.163 139.502 228.164 139.012 228.164L138.879 228.164L138.791 228.163L138.696 228.163C138.404 228.161 138.112 228.16 137.82 228.171C137.759 228.173 137.7 228.215 137.641 228.256C137.613 228.275 137.586 228.294 137.559 228.31C137.578 228.324 137.598 228.338 137.617 228.352L137.637 228.366C137.693 228.407 137.749 228.448 137.808 228.485C138.053 228.637 138.311 228.778 138.568 228.918C139.121 229.22 139.674 229.522 140.108 229.945C143.076 232.842 142.118 238.567 137.677 239.714C134.084 240.643 130.909 239.448 129.843 235.181C129.185 232.551 130.943 229.415 133.603 228.593C133.718 228.557 133.817 228.471 133.916 228.384C133.962 228.344 134.009 228.303 134.056 228.268C134.007 228.242 133.959 228.208 133.91 228.174C133.805 228.102 133.7 228.03 133.595 228.029C130.089 228.015 126.804 226.996 123.582 225.777C119.254 224.14 115.046 222.231 111.15 219.712L111.076 219.664C110.356 219.199 109.614 218.72 109.36 217.748C108.884 215.929 109.804 214.526 111.502 214.065C113.311 213.574 115.045 214.091 116.753 214.639C119.718 215.59 122.68 216.547 125.643 217.505C127.29 218.037 128.937 218.57 130.584 219.101L130.799 219.17L130.799 219.171L130.8 219.171L130.801 219.171L130.802 219.171L130.802 219.171L130.803 219.172L130.804 219.172C131.696 219.46 132.589 219.748 133.488 220.01C133.819 220.107 134.175 220.156 134.52 220.157C136.008 220.163 137.495 220.163 138.983 220.164C140.462 220.165 141.941 220.165 143.421 220.171C143.64 220.172 144.017 220.233 144.049 220.344C144.118 220.583 144.117 220.843 144.117 221.102C144.116 221.204 144.116 221.305 144.12 221.405C144.108 221.401 144.097 221.396 144.085 221.391L144.07 221.385L144.054 221.378C144.007 221.356 143.959 221.334 143.914 221.339C143.746 221.354 143.579 221.374 143.412 221.395C143.163 221.425 142.914 221.456 142.664 221.469C141.799 221.514 140.935 221.554 140.071 221.594L140.062 221.595C138.902 221.648 137.743 221.702 136.584 221.767C134.533 221.882 132.599 221.304 130.683 220.732L130.683 220.731L130.665 220.726C129.178 220.282 127.709 219.775 126.24 219.269C125.41 218.982 124.58 218.696 123.746 218.421C122.705 218.077 121.661 217.742 120.617 217.406L120.616 217.406L120.615 217.406L120.614 217.405L120.613 217.405L120.612 217.405L120.611 217.404L120.611 217.404C119.404 217.017 118.198 216.629 116.996 216.229C116.692 216.128 116.396 215.993 116.101 215.858C115.63 215.643 115.162 215.43 114.67 215.357C113.765 215.223 112.797 215.295 111.895 215.473C111.542 215.543 111.148 216.104 111.036 216.512C110.888 217.058 110.989 217.595 111.627 218.001C114.59 219.884 117.712 221.445 120.919 222.862C123.833 224.149 126.841 225.153 129.913 225.97C130.406 226.102 130.939 226.112 131.455 226.122C132.632 226.144 133.81 226.159 134.987 226.173C136.976 226.198 138.964 226.223 140.951 226.283C143.151 226.351 145.35 226.457 147.55 226.564H147.55H147.55H147.55H147.55H147.55H147.55H147.55C148.573 226.614 149.596 226.663 150.619 226.709C151.525 226.749 152.43 226.789 153.336 226.828C154.652 226.885 155.968 226.942 157.283 227.002C157.567 227.015 157.851 227.039 158.135 227.063L158.135 227.063C158.634 227.104 159.133 227.146 159.63 227.13C160.066 227.116 160.5 227.056 160.935 226.995C161.311 226.943 161.686 226.891 162.064 226.869C162.319 226.854 162.576 226.891 162.834 226.929C163.043 226.96 163.253 226.991 163.462 226.994L163.61 226.996L163.874 227L164.217 227.005C165.376 227.024 166.536 227.042 167.692 226.987C168.691 226.94 169.687 226.861 170.684 226.782C171.645 226.707 172.606 226.631 173.568 226.583C173.854 226.569 174.142 226.64 174.432 226.711C174.687 226.773 174.942 226.836 175.197 226.842C176.948 226.877 178.699 226.874 180.45 226.85C182.157 226.826 183.864 226.781 185.569 226.7C185.907 226.683 186.247 226.625 186.586 226.566C187.087 226.48 187.586 226.393 188.072 226.446C190.023 226.658 191.979 226.711 193.934 226.765H193.935H193.935H193.935H193.935H193.936H193.936H193.936C195.278 226.802 196.619 226.839 197.957 226.927C200.373 227.086 202.513 226.508 204.633 225.642C207.501 224.47 210.346 223.228 213.137 221.885C214.882 221.045 216.548 220.033 218.207 219.025L218.511 218.841C219.568 218.198 220.375 217.292 220.707 216.047C220.874 215.419 220.525 214.939 219.895 214.925C217.942 214.882 216.159 215.56 214.386 216.242C211.808 217.235 209.241 218.256 206.682 219.296C205.647 219.717 204.62 220.158 203.593 220.598C202.824 220.928 202.055 221.258 201.283 221.579C201.014 221.691 200.703 221.755 200.411 221.756C197.969 221.766 195.526 221.765 193.083 221.764C192.413 221.764 191.743 221.764 191.073 221.764C190.401 221.764 189.73 221.764 189.058 221.764C187.241 221.764 185.424 221.765 183.606 221.762C182.985 221.761 182.363 221.74 181.741 221.717C181.702 221.715 181.637 221.616 181.633 221.559C181.627 221.479 181.631 221.397 181.634 221.316C181.638 221.202 181.642 221.088 181.622 220.978C181.538 220.512 181.738 220.441 182.167 220.443C185.231 220.464 188.296 220.473 191.36 220.449C191.665 220.446 191.97 220.444 192.275 220.442H192.275C194.869 220.423 197.464 220.404 200.052 220.272C200.873 220.23 201.7 219.873 202.486 219.534L202.486 219.533L202.489 219.532L202.611 219.479L202.687 219.447C207.172 217.523 211.703 215.718 216.372 214.285C217.217 214.026 218.118 213.928 219.01 213.831C219.1 213.822 219.191 213.812 219.281 213.802C219.359 213.793 219.437 213.784 219.514 213.776C220.122 213.705 220.767 213.661 221.357 213.786C222.293 213.985 222.682 214.884 222.396 215.823C221.875 217.53 220.835 218.828 219.321 219.75C218.245 220.406 217.166 221.055 216.08 221.709L216.071 221.714L216.067 221.717C215.063 222.321 214.054 222.928 213.038 223.546C211.869 224.017 210.701 224.476 209.537 224.934ZM198.117 231.437C196.412 229.581 194.442 229.24 192.092 230.597C190.735 231.382 190.139 233.227 190.253 234.396C190.376 235.655 191.005 236.699 191.967 237.517C193.119 238.497 194.468 238.499 195.857 238.201C198.942 237.537 199.867 233.531 198.117 231.437ZM131.576 233.474C131.576 233.606 131.573 233.739 131.571 233.872V233.872C131.566 234.159 131.561 234.447 131.58 234.732C131.736 237.09 134.472 238.921 136.885 238.228C138.603 237.734 139.593 236.708 139.944 234.907C140.482 232.145 138.767 230.154 136.396 229.811C134.055 229.473 132.129 230.765 131.576 233.474ZM150.408 241.835L155.756 241.835H182.681C183.946 241.835 185.211 241.835 186.475 241.836C192.488 241.837 198.5 241.838 204.513 241.817C204.905 241.815 205.337 241.589 205.661 241.367C205.747 241.307 205.563 240.833 205.384 240.63C205.262 240.492 204.932 240.443 204.696 240.442C185.534 240.437 166.372 240.436 147.209 240.434H147.014C139.486 240.434 131.957 240.433 124.429 240.433C124.151 240.433 123.872 240.414 123.594 240.395H123.593H123.593H123.593H123.592C123.493 240.388 123.393 240.382 123.293 240.376C122.831 240.349 122.232 240.964 122.423 241.316C122.697 241.823 123.259 241.836 123.809 241.836C132.651 241.835 141.493 241.835 150.377 241.835H150.382H150.387H150.393H150.398H150.403H150.408ZM102.202 242.196L98.5704 242.196H98.5644H98.5584H98.5524H98.5465H98.5405C93.1843 242.196 87.8675 242.197 82.5507 242.194C82.4948 242.194 82.4381 242.196 82.3814 242.198C82.0227 242.209 81.6649 242.221 81.5219 241.754C81.3562 241.213 81.5834 240.82 82.1869 240.75C82.3013 240.736 82.4181 240.74 82.5349 240.743H82.5353C82.5889 240.745 82.6426 240.747 82.696 240.747L88.3258 240.747C97.7547 240.747 107.184 240.747 116.613 240.745L116.669 240.745L116.705 240.744C117.195 240.742 117.657 240.739 117.637 241.4C117.62 241.947 117.295 242.196 116.54 242.196C112.875 242.196 109.21 242.196 105.512 242.196H105.502H105.492H102.202ZM229.17 242.198L232.962 242.198L235.406 242.199H235.413H235.421H235.428H235.435C238.54 242.199 241.609 242.2 244.678 242.193C244.998 242.192 245.322 242.128 245.633 242.055C245.719 242.035 245.805 241.886 245.826 241.784C245.983 241.004 245.73 240.75 244.816 240.75L210.906 240.749C210.853 240.749 210.799 240.747 210.745 240.745H210.745C210.628 240.74 210.51 240.735 210.398 240.754C209.775 240.859 209.553 241.291 209.8 241.814C209.99 242.215 210.341 242.207 210.694 242.199C210.743 242.198 210.792 242.197 210.841 242.197C216.875 242.199 222.909 242.199 228.983 242.198H228.987H228.992H229.17ZM202.76 48.6806C202.887 48.6677 203.483 48.7605 204.219 48.8749L204.219 48.8749C205.224 49.0314 206.489 49.2282 207.168 49.2501C207.847 49.2719 207.202 49.9996 207.09 50.0044C205.591 50.0681 202.341 49.078 202.76 48.6806ZM204.95 54.4214C204.315 54.181 204.619 52.2357 205.248 52.2357C205.87 52.2357 205.57 54.6561 204.95 54.4214ZM195.801 232.788C196.351 234.034 196.313 234.544 195.659 235.221C195.213 235.684 194.404 235.762 193.897 235.392C193.355 234.997 193.104 234.063 193.365 233.415C193.825 232.275 194.835 231.997 195.801 232.788ZM136.995 232.884C136.142 232.095 135.293 232.139 134.249 233.161C133.869 234.041 134.055 234.974 135.464 235.222C136.223 235.356 136.673 235.132 137.092 234.678C137.528 234.205 137.403 233.262 136.995 232.884Z" fill="#00160A"/>
<path fill-rule="evenodd" clip-rule="evenodd" d="M186.493 74.2541C185.225 73.8818 184.924 71.9581 183.644 71.6258C182.378 71.2971 181.162 72.7961 179.9 72.4538C179.042 72.221 178.641 71.2734 178.166 70.522C177.703 69.7909 176.729 69.1309 176.034 69.6028L175.977 69.6448C175.012 70.4054 173.565 69.9249 172.593 69.1727C171.622 68.4206 170.798 67.4067 169.631 67.0197C170.244 66.4153 171.305 66.8539 171.898 67.4775C172.491 68.1012 172.973 68.9228 173.797 69.1723C175.06 69.5545 176.481 68.3823 177.673 68.9479C178.414 69.2996 178.715 70.1683 179.158 70.8579C179.602 71.5475 180.567 72.1255 181.197 71.6004C182.725 70.3262 185.457 71.1339 186.046 73.0344C186.217 73.5856 186.971 74.3943 186.493 74.2541Z" fill="#E7EAEE"/>
<path fill-rule="evenodd" clip-rule="evenodd" d="M110.825 218.692C114.35 220.768 125.39 226.884 133.483 227.087L200.421 227.297C200.421 227.297 235.618 214.92 209.884 219.59C208.428 219.854 204.256 222.349 197.55 222.893C185.289 223.886 133.483 223.251 133.483 223.251C133.483 223.251 109.898 218.146 110.825 218.692Z" fill="#E7EAEE"/>
<path fill-rule="evenodd" clip-rule="evenodd" d="M53.3387 177.513C53.4211 177.421 53.5212 177.356 53.5832 177.382C54.2881 177.674 54.6947 177.42 54.9089 176.724C54.9444 176.608 55.1254 176.537 55.2392 176.445C55.3439 176.585 55.5366 176.724 55.537 176.864C55.5385 177.328 55.74 177.547 56.1811 177.685C56.3692 177.743 56.4805 178.044 56.6267 178.235C56.4794 178.269 56.2574 178.257 56.2007 178.347C56.0855 178.53 56.0252 178.766 56.0078 178.985C55.993 179.172 56.0864 179.364 56.1028 179.556C56.1242 179.808 56.0837 179.993 55.7865 179.739C55.1931 179.232 54.6781 179.422 54.1712 179.901C54.0483 180.017 53.8321 180.035 53.6588 180.098C53.6905 179.941 53.6999 179.774 53.7576 179.627C54.06 178.853 53.8511 178.188 53.3387 177.513Z" fill="#FFB61D"/>
<ellipse cx="198.741" cy="59.1805" rx="2.55733" ry="2.55718" fill="#FFB61D"/>
<path fill-rule="evenodd" clip-rule="evenodd" d="M162.15 81.9418L162.444 82.3956L162.542 82.5422C163.158 83.4462 164.095 84.3349 165.136 84.0715C167.907 83.3703 171.059 84.5941 172.63 86.9809C173.407 88.161 175.133 87.9295 176.543 87.6272L176.729 87.5866C178.144 87.273 180.1 87.4205 180.458 88.7914L180.476 88.8703C180.641 89.6595 181.635 89.8994 182.453 89.8786L182.706 89.8694C184.763 89.8694 185.032 91.0003 185.032 90.8841C185.032 90.8841 180.511 90.5415 179.559 89.008L179.501 88.9103C178.895 87.8489 177.365 88.0217 176.168 88.3826L175.838 88.4855L175.673 88.5336C174.504 88.8609 173.086 88.9795 172.499 87.9711C171.154 85.6573 168.35 84.2824 165.695 84.6344C165.012 84.725 164.303 84.9169 163.649 84.7003C162.084 84.1821 161.879 81.7655 160.339 81.1764C158.396 80.4331 156.515 83.2573 154.504 82.7242C155.727 81.7912 157.083 81.0325 158.518 80.478C158.999 80.2922 159.51 80.1268 160.022 80.1889C160.97 80.3038 161.606 81.1187 162.15 81.9418ZM186.839 84.73C186.644 85.3273 186.502 85.8579 186.407 86.308C186.21 85.0106 184.92 83.811 183.705 84.2312L183.635 84.2572C182.863 84.5645 182.046 83.9266 181.547 83.2629L181.428 83.1014L181.248 82.8543C180.845 82.3034 180.41 81.7601 179.765 81.6033C178.584 81.3165 177.542 82.4919 176.335 82.6321C173.542 82.9567 172.146 77.9569 169.403 78.5773C168.804 78.713 168.285 79.1237 167.676 79.207C165.995 79.4367 165.093 77.2987 163.675 76.365C162.609 75.6624 161.104 75.7049 160.079 76.4666C160.131 75.2457 161.792 74.7077 162.925 75.1671C164.058 75.6264 164.837 76.6592 165.778 77.4397C166.696 78.2008 168.058 78.7235 169.057 78.1042L169.133 78.0543C170.335 77.2222 171.943 78.2777 172.882 79.3985L173.223 79.8069C174.08 80.8269 175.06 81.8866 176.344 81.7888C177.524 81.6989 178.528 80.5998 179.699 80.7756C181.404 81.0317 182.1 83.7795 183.815 83.5935C184.916 83.474 186.063 83.8439 186.887 84.585L186.839 84.73ZM187.724 78.9807C187.449 79.3663 187.173 79.676 186.896 79.9099L186.804 79.985L186.573 79.8202C185.452 79.0237 184.228 78.2487 182.865 78.2808C182.367 78.2926 181.857 78.4128 181.379 78.2725C180.11 77.9002 179.809 75.9765 178.53 75.6442C177.264 75.3155 176.048 76.8145 174.785 76.4722C173.927 76.2394 173.526 75.2918 173.051 74.5404C172.589 73.8093 171.615 73.1493 170.919 73.6212L170.862 73.6632C169.897 74.4238 168.45 73.9433 167.479 73.1911C166.507 72.439 165.683 71.4251 164.517 71.0382C165.129 70.4338 166.19 70.8723 166.783 71.496C167.376 72.1196 167.859 72.9413 168.683 73.1907C169.945 73.573 171.367 72.4008 172.558 72.9663C173.299 73.318 173.6 74.1868 174.044 74.8763C174.487 75.5659 175.453 76.1439 176.082 75.6189C177.611 74.3446 180.342 75.1524 180.931 77.0528C181.102 77.6041 181.836 77.7323 182.403 77.6216C182.969 77.5109 183.552 77.2638 184.103 77.4373C184.803 77.6579 185.162 78.4724 185.837 78.762C186.539 79.0632 187.378 78.6801 187.848 78.0738L187.895 78.0103C188.273 77.4811 188.096 78.4596 187.724 78.9807Z" fill="#FFB61D"/>
<path fill-rule="evenodd" clip-rule="evenodd" d="M173.015 93.4739L173.226 93.5359C173.51 93.6224 173.723 93.7501 173.972 93.9605L174.095 94.0686L174.251 94.2107C174.326 94.2794 174.385 94.3311 174.446 94.3806C174.86 94.7201 175.329 94.9307 176.112 95.0549C176.636 95.1383 177.006 95.0548 177.644 94.7577L177.874 94.6479C178.905 94.1504 179.504 94.0118 180.471 94.234C181.297 94.4238 181.676 94.7434 181.984 95.3447L182.062 95.5042C182.21 95.8123 182.686 96.0969 183.062 96.3216C183.343 96.4899 183.568 96.6246 183.557 96.7103C183.53 96.9102 181.787 96.587 181.44 95.8952L181.365 95.74C181.14 95.2755 180.934 95.0901 180.307 94.946C179.572 94.7771 179.127 94.8655 178.306 95.2514L178.076 95.3615C177.243 95.7617 176.734 95.8935 175.997 95.7765C175.086 95.6319 174.497 95.3673 173.983 94.9457C173.947 94.9164 173.912 94.887 173.876 94.8554L173.57 94.5795C173.356 94.3885 173.21 94.2947 173.013 94.2347L172.892 94.1982C172.382 94.0488 171.215 94.4364 170.364 94.7188C169.831 94.896 169.422 95.0318 169.377 94.9679C169.282 94.83 171.999 93.2009 173.015 93.4739ZM172.89 99.0263L173.086 99.0808C173.349 99.1568 173.547 99.269 173.777 99.454L173.891 99.5489L174.036 99.6738C174.106 99.7342 174.161 99.7796 174.217 99.8232C174.601 100.121 175.036 100.307 175.762 100.416C176.249 100.489 176.592 100.416 177.183 100.154L177.396 100.058C178.352 99.6209 178.908 99.499 179.804 99.6943C180.57 99.8611 180.922 100.142 181.208 100.67L181.28 100.811C181.417 101.081 181.858 101.331 182.207 101.529C182.468 101.677 182.677 101.795 182.666 101.87C182.641 102.046 181.025 101.762 180.703 101.154L180.634 101.018C180.425 100.61 180.234 100.447 179.653 100.32C178.971 100.172 178.558 100.249 177.797 100.588L177.584 100.685C176.812 101.037 176.339 101.153 175.656 101.05C174.811 100.923 174.265 100.69 173.788 100.32C173.755 100.294 173.722 100.268 173.689 100.24L173.405 99.998C173.206 99.8301 173.071 99.7477 172.888 99.6949L172.776 99.6628C172.303 99.5316 171.221 99.8721 170.432 100.12L170.432 100.12C169.937 100.276 169.558 100.395 169.517 100.339C169.428 100.218 171.948 98.7864 172.89 99.0263ZM173.253 104.926L173.068 104.871C172.178 104.631 169.798 106.063 169.882 106.184C169.921 106.24 170.279 106.121 170.746 105.965L170.746 105.965L170.746 105.965L170.746 105.965L170.747 105.965L170.747 105.965L170.747 105.965L170.747 105.965C171.492 105.717 172.514 105.377 172.96 105.508L173.066 105.54C173.239 105.593 173.366 105.675 173.554 105.843L173.822 106.085C173.854 106.113 173.884 106.139 173.916 106.165C174.366 106.535 174.882 106.768 175.68 106.895C176.325 106.998 176.771 106.882 177.501 106.53L177.702 106.433C178.421 106.094 178.811 106.017 179.455 106.165C180.004 106.292 180.184 106.455 180.381 106.863L180.447 106.999C180.751 107.607 182.277 107.891 182.301 107.715C182.311 107.64 182.114 107.522 181.867 107.374C181.538 107.176 181.121 106.926 180.992 106.655L180.924 106.515C180.654 105.987 180.321 105.706 179.598 105.539C178.752 105.344 178.227 105.466 177.324 105.903L177.123 105.999C176.564 106.261 176.24 106.334 175.78 106.261C175.095 106.152 174.684 105.966 174.321 105.668C174.268 105.625 174.217 105.579 174.15 105.519L174.014 105.394L173.906 105.299C173.688 105.114 173.501 105.002 173.253 104.926ZM173.068 111.812L173.253 111.867C173.501 111.943 173.688 112.055 173.906 112.24L174.014 112.335L174.15 112.46C174.217 112.52 174.268 112.566 174.321 112.609C174.684 112.907 175.095 113.092 175.78 113.202C176.24 113.275 176.564 113.201 177.123 112.94L177.324 112.844C178.227 112.407 178.752 112.285 179.598 112.48C180.321 112.647 180.654 112.928 180.924 113.456L180.992 113.596C181.121 113.867 181.538 114.117 181.867 114.315C182.114 114.463 182.311 114.581 182.301 114.656C182.277 114.832 180.751 114.548 180.447 113.94L180.381 113.804C180.184 113.395 180.004 113.233 179.455 113.106C178.811 112.957 178.421 113.035 177.702 113.374L177.501 113.471C176.771 113.823 176.325 113.939 175.68 113.836C174.882 113.709 174.366 113.476 173.916 113.106C173.884 113.08 173.854 113.054 173.822 113.026L173.554 112.784C173.366 112.616 173.239 112.534 173.066 112.481L172.96 112.449C172.514 112.317 171.492 112.658 170.747 112.906C170.279 113.062 169.921 113.181 169.882 113.125C169.798 113.004 172.178 111.572 173.068 111.812ZM173.817 118.808L173.621 118.753C172.679 118.513 170.159 119.945 170.248 120.066C170.289 120.122 170.668 120.003 171.163 119.847C171.952 119.599 173.034 119.258 173.507 119.39L173.619 119.422C173.801 119.474 173.937 119.557 174.136 119.725L174.419 119.967C174.453 119.995 174.485 120.021 174.518 120.047C174.995 120.417 175.542 120.65 176.386 120.777C177.069 120.879 177.542 120.764 178.315 120.412L178.528 120.315C179.289 119.976 179.702 119.898 180.383 120.047C180.965 120.173 181.155 120.336 181.364 120.745L181.434 120.881C181.755 121.489 183.372 121.773 183.397 121.597C183.408 121.522 183.199 121.404 182.938 121.256C182.589 121.058 182.148 120.808 182.011 120.537L181.939 120.397C181.653 119.869 181.301 119.588 180.535 119.421C179.639 119.226 179.083 119.348 178.127 119.785L177.914 119.881C177.322 120.142 176.979 120.216 176.493 120.143C175.767 120.033 175.332 119.848 174.948 119.55C174.892 119.506 174.837 119.461 174.767 119.401L174.622 119.276L174.508 119.181C174.278 118.996 174.08 118.884 173.817 118.808ZM175.612 125.176L175.815 125.195C176.087 125.224 176.301 125.301 176.56 125.443L176.689 125.516L176.853 125.614C176.933 125.662 176.995 125.697 177.058 125.73C177.488 125.957 177.948 126.064 178.682 126.045C179.174 126.033 179.499 125.901 180.036 125.541L180.229 125.409C181.095 124.813 181.621 124.596 182.538 124.633C183.321 124.664 183.716 124.88 184.089 125.35L184.185 125.476C184.366 125.719 184.845 125.888 185.222 126.022C185.505 126.123 185.731 126.203 185.734 126.279C185.74 126.456 184.099 126.457 183.676 125.914L183.584 125.792C183.307 125.427 183.091 125.299 182.497 125.275C181.8 125.248 181.406 125.396 180.716 125.862L180.523 125.994C179.823 126.475 179.378 126.671 178.687 126.688C177.834 126.71 177.255 126.576 176.721 126.294L176.61 126.233L176.288 126.043C176.063 125.912 175.916 125.855 175.727 125.834L175.611 125.822C175.122 125.775 174.115 126.298 173.382 126.68L173.382 126.68C172.921 126.919 172.569 127.102 172.518 127.054C172.41 126.95 174.643 125.103 175.612 125.176ZM180.221 129.906L180.059 129.922C179.284 130.012 177.744 131.715 177.842 131.776C177.888 131.805 178.144 131.616 178.479 131.37L178.479 131.37L178.479 131.37C179.012 130.978 179.744 130.439 180.136 130.402L180.229 130.393C180.381 130.38 180.504 130.401 180.698 130.465L180.975 130.557L181.07 130.586C181.526 130.716 181.999 130.729 182.671 130.586C183.215 130.47 183.543 130.258 184.037 129.798L184.174 129.671C184.663 129.222 184.956 129.054 185.51 128.97C185.982 128.899 186.168 128.962 186.431 129.192L186.519 129.269C186.918 129.609 188.215 129.364 188.189 129.233C188.177 129.177 187.989 129.151 187.753 129.119C187.439 129.075 187.04 129.021 186.867 128.868L186.777 128.789C186.425 128.495 186.086 128.394 185.464 128.488C184.735 128.597 184.346 128.836 183.734 129.407L183.598 129.534C183.217 129.881 182.976 130.027 182.589 130.11C182.012 130.233 181.635 130.222 181.268 130.118C181.214 130.102 181.161 130.086 181.092 130.062L180.951 130.014L180.84 129.979C180.618 129.912 180.44 129.887 180.221 129.906ZM184.077 133.209L184.24 133.194C184.458 133.175 184.637 133.2 184.859 133.266L184.969 133.302L185.111 133.35C185.18 133.373 185.233 133.39 185.286 133.405C185.654 133.51 186.03 133.521 186.608 133.398C186.995 133.315 187.236 133.169 187.617 132.822L187.753 132.695C188.365 132.124 188.754 131.885 189.483 131.775C190.105 131.682 190.443 131.783 190.795 132.077L190.886 132.155C191.059 132.309 191.457 132.363 191.772 132.406C192.008 132.439 192.196 132.465 192.207 132.521C192.233 132.651 190.937 132.896 190.538 132.557L190.45 132.48C190.187 132.25 190.001 132.187 189.528 132.258C188.974 132.341 188.681 132.51 188.192 132.959L188.056 133.085C187.561 133.546 187.233 133.758 186.69 133.874C186.018 134.017 185.545 134.003 185.089 133.874L184.993 133.845L184.716 133.752C184.523 133.689 184.399 133.668 184.247 133.681L184.154 133.689C183.763 133.727 183.031 134.265 182.497 134.658L182.497 134.658L182.497 134.658C182.163 134.904 181.906 135.092 181.861 135.064C181.762 135.003 183.303 133.3 184.077 133.209ZM189.383 136.748L189.255 136.784C188.649 136.965 187.658 138.544 187.745 138.579C187.785 138.595 187.964 138.408 188.197 138.164L188.197 138.164L188.197 138.164C188.568 137.775 189.077 137.242 189.385 137.156L189.458 137.137C189.577 137.105 189.679 137.104 189.843 137.128L190.077 137.163L190.157 137.172C190.54 137.212 190.921 137.155 191.438 136.946C191.856 136.777 192.088 136.562 192.418 136.124L192.51 136.003C192.837 135.575 193.048 135.399 193.479 135.255C193.847 135.132 194.004 135.155 194.247 135.302L194.328 135.351C194.695 135.567 195.697 135.188 195.657 135.087C195.641 135.044 195.486 135.05 195.293 135.057C195.036 135.067 194.71 135.079 194.55 134.981L194.466 134.931C194.143 134.746 193.859 134.713 193.374 134.875C192.807 135.065 192.53 135.311 192.121 135.854L192.03 135.975C191.774 136.306 191.603 136.457 191.305 136.577C190.86 136.757 190.558 136.802 190.25 136.77C190.205 136.765 190.16 136.759 190.102 136.75L189.982 136.732L189.888 136.719C189.701 136.697 189.555 136.702 189.383 136.748ZM193.316 139.735L193.444 139.7C193.616 139.654 193.762 139.648 193.949 139.671L194.042 139.683L194.162 139.702C194.22 139.711 194.265 139.717 194.31 139.721C194.618 139.753 194.921 139.709 195.365 139.529C195.663 139.408 195.835 139.258 196.091 138.926L196.182 138.806C196.59 138.263 196.868 138.017 197.435 137.827C197.919 137.664 198.204 137.697 198.527 137.883L198.61 137.933C198.77 138.031 199.096 138.018 199.354 138.009C199.547 138.001 199.701 137.995 199.718 138.039C199.757 138.139 198.755 138.518 198.388 138.303L198.307 138.254C198.065 138.107 197.907 138.083 197.539 138.206C197.108 138.351 196.898 138.527 196.57 138.955L196.479 139.075C196.149 139.513 195.916 139.729 195.498 139.898C194.981 140.107 194.601 140.163 194.218 140.124L194.138 140.114L193.903 140.079C193.74 140.056 193.638 140.056 193.518 140.088L193.445 140.108C193.137 140.193 192.628 140.727 192.257 141.116L192.257 141.116C192.024 141.359 191.846 141.546 191.805 141.53C191.718 141.495 192.709 139.917 193.316 139.735ZM198.193 142.622L198.065 142.658C197.459 142.839 196.468 144.418 196.555 144.453C196.595 144.469 196.774 144.282 197.006 144.038C197.378 143.649 197.887 143.116 198.194 143.03L198.268 143.011C198.387 142.979 198.489 142.978 198.653 143.002L198.887 143.037L198.967 143.046C199.35 143.086 199.73 143.03 200.247 142.82C200.665 142.651 200.898 142.436 201.228 141.998L201.319 141.877C201.647 141.449 201.858 141.273 202.289 141.129C202.656 141.006 202.814 141.029 203.057 141.176L203.138 141.225C203.505 141.441 204.507 141.062 204.467 140.961C204.45 140.918 204.296 140.924 204.103 140.931C203.846 140.941 203.52 140.953 203.36 140.855L203.276 140.805C202.953 140.62 202.669 140.587 202.184 140.749C201.617 140.939 201.34 141.185 200.931 141.728L200.84 141.849C200.584 142.18 200.412 142.331 200.114 142.451C199.67 142.631 199.368 142.676 199.059 142.644C199.014 142.639 198.97 142.633 198.911 142.624L198.791 142.606L198.698 142.593C198.511 142.571 198.365 142.576 198.193 142.622Z" fill="#FFB61D"/>
</svg>
